<svg xmlns="http://www.w3.org/2000/svg" xmlns:xlink="http://www.w3.org/1999/xlink" width="1448" height="1086"><g><svg xmlns="http://www.w3.org/2000/svg" xmlns:xlink="http://www.w3.org/1999/xlink" width="1448" height="1086"/><svg xmlns="http://www.w3.org/2000/svg" width="1448" height="1086" version="1.0" viewBox="0 0 1448 1086"><g fill="#fefdf9" transform="matrix(.1 0 0 -.1 0 1086)"><path d="M0 5430V0h14480v10860H0V5430z"/></g></svg><svg xmlns="http://www.w3.org/2000/svg" width="1448" height="1086" version="1.0" viewBox="0 0 1448 1086"><g fill="#faf3ec" transform="matrix(.1 0 0 -.1 0 1086)"><path d="M5695 8900c-94-11-203-35-299-64-44-14-84-22-90-19s-7 2-3-3c10-11-91-56-107-47-6 3-8 3-4-2 11-11-50-47-65-39-7 4-9 4-5-1 4-4-14-23-40-40-142-99-234-191-323-325-25-38-49-66-53-63-4 4-4-1 0-11 5-13 4-17-4-12-6 3-14 1-18-5-4-8-3-9 4-5 15 9 15 3 0-29-9-19-14-22-21-13-6 9-7 8-3-5 3-10-1-35-10-55-22-54-54-191-54-236 0-33-2-37-15-26-12 10-15 10-15-3 0-8 4-17 9-19 6-1 11-51 13-109 2-59 6-105 9-103 4 2 9-15 13-37 11-69 32-109 57-109 38 0 179-42 173-51-3-5 2-6 10-3 13 5 14 23 9 117-7 132 35 337 69 337 5 0 6-5 2-12s-3-8 5-4c9 6 9 11-1 24-11 13-11 14 1 7 11-6 13-4 8 7-3 9 0 15 6 14 7 0 12 2 12 5 0 15 39 48 49 42 6-4 3 3-7 15-20 22-14 47 9 38 8-3 14 1 14 10s5 12 12 8 8-3 4 5c-6 9-11 9-24-1-35-28 29 49 91 111 42 41 69 61 78 56 7-5 10-4 6 2-6 9 20 33 62 58 10 5 12 4 7-3-11-18 10-14 25 5 12 14 12 16 0 8-10-6-12-4-7 4 5 7 14 10 22 7s14-1 14 5c0 16 149 81 168 74 9-3 13-3 9 1-41 41 416 90 582 63 131-22 220-43 214-52-3-5 4-6 17-2 17 5 21 4 15-5-5-9-4-11 4-6 13 9 73-2 67-12-2-4 6-8 17-8 41-3 166-65 160-80-3-8 1-14 10-14 8 0 20-7 27-15s17-15 22-15-4 12-19 26c-25 23-21 22 37-9 36-20 65-40 65-45 0-6 4-14 9-19s6-2 1 6c-5 9-3 12 6 9 8-3 13-11 11-17-1-7 2-10 7-7 19 12 261-198 261-227 0-6-7-2-16 9l-15 19 9-20c5-11 7-27 4-35-5-13-3-13 11-1 20 16 52-2 40-23-3-6-3-8 2-4 4 4 14 3 22-3 16-14 18-33 1-23-7 4-8 3-4-5 4-6 11-9 16-6s19-9 31-27c13-17 18-28 11-24s-12 1-12-7 7-18 16-21c10-4 13-2 9 7-4 6 3 1 15-13 12-13 17-26 12-28-6-2 1-15 14-29s23-28 22-32c-2-18 3-32 11-27 5 3 12-1 15-10 4-10 2-13-7-8s-9 4-1-6c13-14 58-4 49 11-4 5 4 10 17 10 18 1 19 2 5 6l-18 5 18 15c10 8 12 11 4 7-10-5-9 2 4 24 10 17 23 28 29 25 5-4 7 1 3 10-3 9-1 19 5 23s8 3 5-3c-4-6 0-14 9-17 8-3 12-2 9 4s0 10 7 10c10 0 10 2-1 9s-9 11 8 20c12 7 27 9 33 5 7-5 8-3 4 5-5 7-14 10-22 7-7-3-16-1-19 3-7 12 20 33 30 23 5-4 5-2 2 5-21 36 266 323 307 307 9-3 16-1 16 6 0 6-6 8-12 5-7-4 1 5 17 19 31 27 51 34 39 14-4-7-3-8 5-4 6 4 9 11 6 16-7 12 164 102 182 96 9-4 11-2 7 6-5 8-2 9 10 5 9-4 15-3 12 2-3 4 6 13 20 20 32 14 47 14 38-1-4-7-3-8 5-4 6 4 9 11 6 16s27 18 67 30 93 27 118 35 61 16 80 19 51 8 70 11c179 29 570-3 570-47 0-5-9-4-19 2-30 16-49 11-21-5 29-17 64-20 55-5-8 13-7 13 56-9 119-40 287-144 269-166-7-9-5-19 10-36l21-24-17 28c-15 25-15 27 0 27 23 0 118-90 112-106-3-8 0-16 6-20 7-5 8-2 3 6-16 27 14-1 37-33 14-20 16-27 6-19-15 12-17 11-15-6 1-13 7-19 19-17 10 2 21-1 24-7 5-7 2-8-6-3-9 6-10 2-5-15s4-21-5-15c-8 5-11 4-6-3 3-6 15-9 26-7 13 3 17-1 13-12-3-9 4-24 19-38 26-24 74-154 65-177-3-7-6-2-6 11l-1 24-20-18c-25-22-25-26-2-51 11-11 22-26 25-34s6 0 6 19c1 19 4 32 7 28 9-9 5-187-5-227l-9-35-1 30-1 30-20-25c-11-14-20-20-20-13s-7 10-15 7c-8-4-15-2-16 2-15 269-82 420-247 563-28 25-49 47-47 51s-1 7-8 7-37 16-67 36c-264 174-725 213-1074 90-56-19-112-35-126-35s-19-3-13-5c7-3-13-18-45-35-159-85-482-374-482-433 0-10-86-135-91-131-2 2-14-17-26-41-13-24-19-41-14-38 6 3-1-21-13-53-13-33-26-65-28-73-4-9-9-5-17 14-6 16-22 53-36 83s-25 58-25 62-29 52-65 106-65 107-65 118c0 10-4 17-9 14-4-3-26 16-47 42-56 69-170 179-236 227-31 24-54 46-50 50 4 5 2 5-5 1s-30 5-53 19c-430 271-1114 234-1437-78-34-33-56-47-65-42-7 5-10 5-6 0 4-4-18-43-49-87-30-43-69-114-86-156l-31-77v-142c-1-78 1-141 4-141 19 1 30-3 26-11-6-10 24-25 32-16 3 3-1 5-8 5s-11 2-8 5c20 20 266-163 273-203 1-10 7-16 13-15 15 4 53-47 45-60-3-6-1-7 5-3 15 9 46-39 36-56-4-7-4-10 1-6 21 20 127-193 129-259 0-22 4-39 8-37 18 11 29-95 15-137-17-49-17-49 10-54 10-1 17-8 15-15-1-7 6-6 20 4 25 18 42 21 33 6-7-12 2-12 30 0l20 9-20 1c-36 2 74 38 194 64 296 64 707 96 1291 102 275 3 429 9 437 15 9 8 17 6 28-5 12-12 37-16 98-16 239 0 856-64 865-89 2-5 11-7 21-4 20 5 147-24 259-60l65-20 14 18c7 11 13 33 13 49 0 21 3 27 9 18 6-10 10-7 15 12 4 17 11 24 18 20 8-5 9-2 5 10-4 10-7 19-7 22 0 2-7 1-15-2-10-4-15 0-15 11 0 9 4 14 8 11 4-2 9 16 10 40 2 58 20 126 31 119 5-2 11 7 14 20 2 14 0 28-5 31-14 9 1 85 23 115 10 14 16 29 12 33-3 3 0 6 9 6 8 0 15 6 16 13 3 43 22 86 48 108 21 17 13-17-16-68-10-17-17-39-16-49 4-24 26-30 27-7 0 16 1 16 9-2s9-17 9 7c1 32 67 112 86 104 13-5 35 12 35 27 0 4-6 5-12 1-21-12 34 46 74 78 30 23 41 27 55 19 10-6 14-11 9-11-12 0 14-30 27-30 6 0 2 7-9 15-10 8-14 15-7 15 6 0 15-5 18-10 7-12 25-4 25 11 0 5-9 9-20 9-52 0-6 52 79 90 64 29 123 18 78-15-10-7-17-16-17-21 0-4 5-3 12 4s19 12 28 12c8-1-10-14-40-29-50-26-86-34-50-11 8 6 11 10 5 10-5 0-23-12-40-26-16-14-24-23-17-19 25 13 11-2-34-36-25-19-51-34-57-34-7 0-12-4-12-10 0-17-15-34-38-45l-22-11 19 15c11 9 17 18 15 20-6 6-69-46-69-56 0-4 8-4 18-1 12 5 9-2-10-23-14-16-38-42-53-59-15-16-24-23-20-15s-3 3-15-13c-12-15-27-24-32-21-7 4-8 2-4-5 4-6 12-9 17-6 5 4 9 3 9 0 0-14-55-105-63-105-5 0-5 5-1 12s3 8-5 4c-6-4-10-20-9-34 2-19-2-27-12-26-9 1-16-8-16-22-1-13 2-22 6-19s1-17-8-44c-11-31-20-45-25-38s-6-1-2-18l6-30-15 20-15 20-1-32c0-17 4-34 9-37 9-6 4-81-9-133-6-23-5-30 4-27 14 5 101-67 116-97 9-15 8-17-7-12-16 6-17 5-3-12 8-10 10-16 4-12-7 4-15 0-18-9-3-8-2-13 3-9 5 3 11-1 14-7 3-9 10-7 21 7 8 11 16 15 16 8 0-6-4-14-9-17-10-7-2-54 10-62 5-3 6 2 3 10-3 9-2 16 4 16 20 0 30-108 16-179-6-29-8-30-20-14-12 15-13 15-8 2 3-10 0-20-5-24-6-3-9-11-5-16 3-5 10-7 15-4 5 4 4-5-2-19-7-14-15-25-18-24-18 2-25-3-14-10 9-6 5-17-17-43-16-18-29-29-30-22 0 8-7 10-17 6-16-6-16-4 2 16 11 12 21 18 23 12s8-11 13-11c6 0 8 4 5 9s0 24 8 42c7 19 17 43 21 54 23 58-4 198-49 254-6 7-11 19-12 25-3 33-5 37-12 32-5-3-38 9-73 25-228 109-570 152-1405 179-613 20-1481-23-1767-87-38-8-77-13-88-10-10 3-19 1-19-5s-11-7-26-4c-15 4-23 3-20-3 4-5-17-18-46-29s-73-32-98-46-52-26-61-26c-19 0-52-34-43-43 4-4 2-13-5-21-6-8-11-18-10-22 5-22-24-105-32-92-6 8-9-2-9-29 0-23-3-50-6-60l-6-18 15 17c13 16 15 14 25-19 6-21 8-40 4-43-11-8-13-30-3-30 5 0 11 4 13 10 2 5 10-3 19-19 12-21 13-28 3-28-7 0-13 3-12 6 2 20-3 31-12 26-6-4-8-12-4-18 3-7-1-3-10 7-8 10-13 23-10 27 3 5 1 9-4 9-15 0-32 59-26 89 5 21 3 23-6 11s-10 4-7 68c2 54 8 87 17 92 7 5 9 13 4 21-6 10-3 10 11-1 17-14 18-13 12 8-4 18-2 22 8 18 11-4 12 0 5 19-7 17-5 25 6 29 8 3 12 2 9-3s-2-12 3-15c11-7 12 27 0 35-11 7 45 60 68 63 11 2 17 5 14 8s1 12 9 21c10 13 12 33 6 84-4 38-9 85-10 106-1 20-9 45-17 55-23 27-47 100-41 123 5 17 3 20-7 14s-12-4-7 8c3 10 2 17-4 17s-7 9-3 22c6 20 5 21-9 10-13-11-17-10-27 7-8 15-8 21 0 21 7 0 10 6 7 13-2 6-10 11-16 9-6-1-26 18-43 43-29 41-37 59-40 91-1 6-7 11-15 11-15 0-17-8-5-23 4-5-1-1-11 10-14 15-15 21-5 28s9 8-3 6c-21-4-83 49-68 58 11 7-26 43-44 44-15 0 4-21 27-30 12-5 15-9 6-9-8 0-31 14-50 31s-28 27-20 23c9-5 12-4 7 1s-13 10-18 10c-5 1-14 2-20 3-5 0-7 6-3 13s3 8-4 4-29 5-49 19c-21 14-33 25-28 25 6 0 1 7-9 15-11 8-25 15-30 15-6 0-2-7 8-15 28-21 14-19-38 7-25 12-43 26-40 30 4 5-4 12-16 15-13 3-19 11-16 20 4 9 2 11-7 6-6-4-25-6-42-5-25 1-27 0-10-7 30-14 14-13-62 5-101 24-335 15-418-16-33-12-72-23-87-25-16-1-31-4-35-5-5-1-12-2-16-1-5 1-6-3-2-9 5-8 11-7 21 1 8 6 17 9 20 6 7-7-56-42-76-42-8 0-15-5-15-11s-22-35-49-65c-43-47-58-53-19-7 10 11 11 18 3 23-6 4-9 1-8-7 2-7-2-12-8-11s-11-3-12-10-3-22-4-34c-3-25-35-66-46-59-4 2-8-10-9-27l-2-32 14 30c12 24 13 25 8 5-3-14-10-41-14-60l-7-35-2 30c-1 18-4 23-7 13-2-10-8-18-13-18-10 0-1-98 11-120 5-9 6 8 4 40-4 47-3 44 10-23 8-43 24-97 35-120 12-23 15-35 8-26-12 15-15 15-28 1s-12-15 4-9c13 5 17 3 13-7-3-8 1-13 11-12 10 0 41-23 70-52 50-51 53-62 5-19-13 11-23 16-23 11s19-22 42-38c23-17 38-24 34-18-10 16-3 15 39-5 20-10 30-20 24-23-6-4 2-8 18-8 15-1 70-4 121-8l93-6 6-29c5-25 33-63 33-44 0 4 7 1 17-6 15-13 15-12 4 9-6 12-9 22-7 22 31 0 87-191 110-375 20-154 39-235 78-329 18-44 23-64 13-56-10 9-15 9-15 1 0-6 4-11 10-11 16 0 51-43 46-57-3-7 0-12 7-10 7 1 11-6 10-16 0-10 2-16 5-13 7 8 32-14 32-28 0-6-4-5-9 3-6 9-11 10-15 2-4-6-2-11 4-11s9-4 6-9c-4-5 2-7 11-5 12 3 41-18 86-60 37-36 65-61 61-55-3 6 3 5 15-2 17-11 18-16 7-29-11-11-15-75-19-270-3-140-7-270-9-288-5-43 11-56 59-46 21 4 42 7 46 6s7 6 5 15c-2 10 2 17 8 16s9 8 7 22c-5 24 26 52 42 37 5-4 5-1 1 6s-13 9-19 6c-7-4-3 2 8 13s23 19 28 16c4-2 7 3 7 12 0 10 5 13 12 9 7-5 8-3 4 5-5 7-1 20 7 29 9 9 17 21 19 27 2 5 7 9 11 7 5-1 6 2 2 8-8 13 21 55 38 55 6 0 12 7 13 15 2 35 5 41 13 35 6-3 15 4 22 17 6 12 20 31 30 42 11 11 19 24 19 29s7 7 15 3c8-3 15-1 15 5s5 7 10 4c6-3 11 0 11 7 5 55 17 68 68 70 25 1-3 5-64 8l-110 6 158 2c189 2 193 7 50 62-18 7-33 16-33 21s-3 8-7 7c-8-3-83 41-83 48 0 2 8 1 18-3 14-5 15-3 5 8-17 17-16 26 2 26 8 0 12-4 9-9-3-4 2-5 11-1 15 5 14 8-5 27l-21 21-10-17c-6-10-17-18-25-18-9 0-12-5-8-12s3-8-5-4c-6 4-8 12-5 18 5 7 2 9-8 6-10-4-34 13-69 50-61 64-90 99-73 89 7-4 17 0 23 7 9 11 9 16 0 22-8 4-9 3-5-4s2-12-3-12c-15 0-10 44 6 59 8 7 13 8 13 1 0-5 11-20 25-32s23-28 20-36c-2-7-1-11 4-8 11 7 53-39 44-48-5-4-2-6 6-4s20-7 26-19c7-13 16-20 21-15 4 4 3 0-4-10-10-12-10-18-1-24 7-4 9-3 6 3-3 5 2 10 11 10 21 0 74-42 64-51-3-4 0-5 8-2s26-4 40-15 19-18 13-14c-7 3-13 4-13 1s14-13 30-21c18-9 28-21 24-27-4-7-3-8 5-4 9 6 9 11 0 22-19 23-2 16 22-8 12-13 19-18 15-11-5 8 5 7 31-3 48-20 56-28 20-19-34 9-34 2-1-20 15-9 23-12 20-6-4 6-3 11 3 11 5 0 12-4 15-9s20-11 38-13c18-3 42-8 53-12 14-5 12-2-5 9-21 13-22 15-4 10 147-39 122-38 1154-44 1061-6 1707 0 1805 18 33 6 74 13 90 16 23 5 27 4 15-5-12-8-7-10 21-6 56 8 96 26 80 35-9 6-7 10 8 14 12 3 24 1 27-4s10-9 16-9c7 0 7 5-1 14-9 11-7 15 9 19 11 3 20 1 20-4 0-4 7-6 16-2 11 4 12 8 4 13s-7 9 5 14c9 3 22 3 27-1 6-3 8-2 5 4-10 16 38 34 52 20 9-9 11-8 6 4-4 11 7 25 37 45 59 40 78 50 48 24l-25-21 32 15c17 9 35 21 38 27 4 6 17 14 29 19l21 9h-20c-12 1-27-5-35-11-8-7-6-3 4 9 10 13 23 20 28 17 4-3 7-1 6 4-6 21 72 85 87 72 18-15 20-34 3-24-7 4-8 3-4-5 4-6 11-9 16-6 33 20 9-22-40-70-33-33-60-56-60-53 0 4 8 14 17 24 13 13 14 16 3 12-8-2-20-14-26-26-15-30-27-41-18-18 5 14 4 17-4 12-7-4-12-15-12-24 0-24-159-120-174-105-3 4-6 2-6-4s-13-13-30-16c-66-14-28-27 75-27 70 0 105-4 105-11 0-6-7-9-15-5-12 4-13 2-2-14 6-11 15-20 19-20 5 0 8-7 8-15s21-35 46-60c37-36 44-48 35-59-8-10-9-16-1-21 9-6 14 1 11 18 0 4 4 7 9 7 6 0 10-9 10-21 0-11 4-18 9-15s26-20 47-52c21-31 42-59 46-60 4-2 6-8 2-13-3-5 0-9 5-9 6 0 10-3 9-7-6-24 52-110 65-96 3 2 11-10 18-26 8-17 18-31 22-31 5 0 5-5 1-12-4-6-3-8 4-4 6 3 13 2 17-4 9-14 52-13 61 2 5 7 7 55 5 106-1 54 1 92 6 89s7 7 5 24c-2 16-8 29-13 29s-9 77-9 171v171l-42-6-43-6 30 20c34 22 50 26 39 8-4-7-3-8 5-4 6 4 9 11 6 16-3 4 10 17 27 29 18 11 50 38 72 60 24 25 45 38 58 36 10-2 16 0 13 6-4 5-11 7-16 3-5-3 9 21 31 53 23 32 46 58 52 58s13 7 15 15c4 13 3 13-6 0-14-20-14-7 1 25 9 19 14 22 21 13 6-9 7-8 3 5-3 9 8 57 24 105 19 56 36 144 50 247 21 167 43 271 35 165-4-47-3-51 5-25 6 17 8 46 5 67-7 48 27 134 72 188l35 40h74c72 0 181 27 211 52 7 5 17 7 22 4 5-4 13-1 17 5 5 8 3 9-6 4s-11-4-6 4c4 6 13 11 19 10 18-3 47 12 47 24 0 6-8 4-18-4s0 4 22 25c23 22 34 36 26 32s-6 0 4 8c11 9 17 16 13 16s2 18 13 39c10 22 22 57 26 80 4 22 9 39 13 37 4-3 6 12 4 32-2 30-1 33 7 17 7-15 8-9 5 25-2 25-4 53-4 64-1 12-6 16-16 12-9-3-15 0-15 8 0 7-11 35-25 62s-19 40-10 30c17-23 20-14 4 15-5 11-14 17-18 15-11-7-44 30-37 42 3 4-4 16-15 25-10 9-19 13-19 7 0-5 8-14 18-19 9-6 12-11 6-11-13 0-60 49-56 58 2 4-2 8-10 10-9 2-8 0 2-7 26-19 2-12-34 10-37 21-51 38-18 20 13-7 19-6 19 2 0 7-7 13-16 14-58 6-92 13-131 28-25 9-82 19-128 22-84 6-106 18-29 16l42-2-35 9c-37 10-90 4-90-9 0-5-33-11-73-14-40-4-111-17-157-31-47-13-86-23-88-21s14 9 37 16 41 16 41 22c0 5-8 6-17 2-31-13-47-11-51 6-3 17 123 59 175 59 73 0 108 356 53 545-13 44-23 95-23 113s-4 28-7 21c-4-6-23 20-44 60-20 40-34 77-30 83 4 7 3 8-4 4-11-6-16 6-13 26 0 5-3 7-8 5-13-4-93 102-85 115 4 6 3 8-3 5-5-4-23 8-39 26-25 27-25 29-4 12l25-20-19 22c-10 12-22 21-26 20s-37 22-73 51c-84 68-118 91-195 132-34 18-59 36-57 41 3 4 0 11-6 15-8 4-9 3-5-4s3-12-3-12c-19 0-80 33-76 41 3 4-5 5-17 2-16-3-19-2-10 4 9 7 2 10-20 10-18 0-76 11-129 26-268 72-603 53-887-52-46-16-89-28-95-25-7 2-21-3-32-11l-20-16 22 10c44 22 36 9-10-15-26-14-53-22-59-18-7 5-8 3-3-6 6-10 4-12-9-7-10 4-15 3-11-3 3-5-9-17-27-26s-50-30-71-46c-20-17-44-31-52-32s-18-6-22-11c-4-4-1-5 7 0 11 6 12 5 4-4-6-6-21-13-34-16-12-2-25-7-29-11-3-4 3-4 13 0 11 4-27-42-85-101-57-59-110-106-118-105-9 3-12-3-8-17 3-12 0-24-5-28-7-3-8-1-4 5 5 8 2 10-9 6-12-5-13-10-5-19 13-15-15-36-38-28-7 3-10-1-6-11 3-9 11-13 17-9s7 1 2-6c-4-7-16-11-26-8-24 7-33-7-19-32 9-17 7-19-15-15-14 2-25 0-25-6 0-9 14-14 33-11 5 1-4-21-19-47-19-34-33-48-44-45-10 3-17-2-17-12 0-9 6-14 13-11 10 4 10-2 3-24-7-19-16-27-25-23-8 3-14 1-14-5s4-12 9-14c4-1 2-19-6-38-7-19-11-25-9-13 2 15 0 20-10 16-7-2-11-12-8-21 2-9-7 8-22 38l-26 55 27 22c27 24 26 55-1 32-10-8-18-9-27 0-8 6-16 9-18 7-2-3-19 22-37 55-22 39-27 57-17 53 8-3 12-11 8-17-3-6-1-7 6-3 12 8 8 18-22 53-11 12-24 20-28 17-4-2-10 0-13 5-4 5-2 12 4 16s7 11 4 17c-4 7-9 6-14-2-4-7-26 13-58 57-28 37-64 81-81 97s-28 34-24 39c3 6 2 7-4 4-15-9-87 69-78 84 6 9 2 11-13 7-14-4-29 3-47 22-15 16-40 34-56 40-16 7-29 16-29 21s-6 9-12 9c-7 0-24 10-38 21l-25 20 25-6c21-5 22-4 7 5-9 6-22 8-27 5-13-8-52 13-45 25 3 4-5 6-17 3-19-4-21-3-8 7s13 11-2 6c-19-6-128 38-112 46 5 3 3 3-4 1-8-2-57 10-110 27-186 56-434 81-607 60zm3553-1328c44-8 46-100 4-126-11-7-10 19 1 30 4 4 7 25 7 46v38l-87 2c-136 2-284-2-443-12-80-5-161-9-180-9l-35 1 45 10c101 21 603 36 688 20zm-4868-427c0-2-15-9-32-15l-33-10 40 6c94 14 139 10 163-14 17-17 31-22 47-18 13 3 27 2 30-4 4-6-1-7-12-4-10 4 4-8 31-25 26-18 51-30 54-27 3 4 1 6-4 6s-20 10-34 21l-25 21 30-17c58-34 122-105 94-105-5 0-8 4-4 9 3 5 1 12-4 15-8 5-8-15-1-34 1-3 2-8 1-12-2-15 17-8 23 8 6 15 8 15 27-2 11-10 17-24 14-31-2-8-1-11 4-8s13 0 17-6c3-6 0-15-7-20-10-6-8-9 10-9 20 0 22-4 17-24-3-14-2-28 4-31 6-4 7 1 3 12-11 33 14 0 41-52 14-27 21-51 15-53-5-2-9-8-9-13 0-6 5-7 10-4 13 8 43-62 36-82-3-8-2-12 3-9 12 8 24-41 77-294 41-200 87-353 115-385 12-13 11-28-1-20-15 9-12-11 3-24 8-6 17-7 22-3 4 4 0-5-9-19s-14-28-11-31-1-11-9-17c-11-9-16-9-22 0-4 7-3 9 4 5 6-3 13-2 17 4 3 5 1 10-6 10-8 0-5 9 7 23 10 12 12 16 4 10-21-19-31-16-27 10 2 12 2 17 0 10-6-18-53 26-70 67-11 24-12 35-4 38 6 2 8 8 5 13-3 6-7 20-9 32-1 12-6 30-10 40s-3 17 4 17c6 0 11-5 11-11 0-5 5-7 10-4 6 3 10 16 9 28v22l-9-20-9-20v19l-1 20-15-20c-10-13-14-15-15-5 0 8-2 12-5 9-3-2 2-27 10-54 17-56 18-65 6-44-11 18-51 173-50 192 0 7 4 4 9-7l9-20v23c1 13-5 22-14 22-8 0-15 8-15 19 0 10-2 34-5 52l-5 34 11-34c16-51 18-33 4 34-10 44-14 52-15 30-1-20-8-3-20 50-20 87-23 111-10 80 7-15 9-16 9-4 1 9-6 22-14 29-16 13-12 75 6 95 17 18 9 25-9 8-10-10-17-27-15-38s-4-2-12 20c-9 22-13 45-10 53 2 7 1 11-4 8s-11 4-14 16c-4 16-3 18 6 9 6-6 15-11 21-11 5 0-2 10-16 23-14 12-33 36-43 52l-18 30 26-30c15-16 26-25 27-19 0 13-49 79-58 78-10-2-55 66-48 73s-25 63-36 63c-14 0-9-13 15-39l22-26-27 24c-27 24-31 42-14 71 7 12 6 12-4 3-7-6-19-9-28-6-11 5-13 3-7-8 5-8-12 4-36 26-25 22-44 43-42 47s-2 10-8 14c-8 4-9 3-5-4 10-17 4-15-46 13-39 21-80 31-227 52-51 7-34 14 82 32 4 0 7-1 7-4zm5775-4c22-5 31-10 20-11l-20-1 20-9c16-7 11-9-22-9-72-1-146-22-206-57-32-19-62-32-67-29-4 3-10-5-13-16-4-13-10-18-18-13-7 4-10 3-5-4 3-6 0-14-8-19-7-4-30-28-50-51-20-24-36-40-36-36s10 18 22 31c17 19 19 26 9 36-10 9-11 9-6-4 3-9-3-23-15-34-11-10-20-24-20-32s-4-11-10-8c-5 3-10-1-10-10s5-13 11-9c10 6-18-44-31-56-3-3-11-16-18-30-8-16-11-18-7-5l5 20-15-19c-8-10-16-24-18-30-3-7-11-3-21 9l-17 20 14-30c8-16 12-37 10-45s3-4 11 10c21 35 20 26-13-64-15-44-30-73-33-66-3 10-6 7-10-8-4-12-2-20 3-16 5 3 9-2 9-11s-4-14-9-11c-4 3-6-7-4-22 3-20 2-23-6-13-11 17-27-28-18-51 3-7 6-2 6 11 1 13 4 22 7 18 3-3-2-49-12-103-14-74-20-91-26-73-5 15-6 9-3-18 6-49-35-236-45-207l-7 18-8-20c-4-10-9-28-10-38l-2-19 14 18c19 27 16 16-17-66-26-63-65-130-45-77 5 13 2 16-14 13-11-2-23 1-27 6-4 6-11 6-19-1-8-6 1 19 20 57 42 85 67 173 100 338 53 272 69 317 88 263 2-7 4 2 3 20-1 28-3 30-13 15-28-37 5 72 48 159 19 40 25 45 37 35 13-10 14-9 3 10-13 25 28 106 50 100 6-1 14 4 17 12 3 9 0 11-9 6-16-9 9 22 60 77 19 20 38 35 43 32 4-3 8 0 8 6 0 19 93 72 102 58 6-10 10-10 20 0 9 9 9 12-2 12-13 0-13 2 0 10 18 12 33 13 27 2-3-4 8-7 23-7 30-1 31 14 2 16-10 0-12 3-5 5 7 3 21 0 32-6 14-7 21-7 21 0 0 5-6 11-12 11-13 2 54 15 82 17 8 0 33-3 55-7zM8954 5903c-16-7-49-10-74-8-34 3-39 2-20-4 14-5-664-9-1615-9-902 0-1626 4-1610 8l30 7-30 6c-16 3 40 2 125-1 159-7 247-8 430-3 58 1 260 2 450 2s395 1 457 2c61 2 110 0 108-4-4-5 281-3 467 4 36 1 64-1 62-5-3-5 2-8 11-8s14 3 12 8c-5 6 47 6 318 1 39-1 111-1 160 0 50 1 152-1 228-4 91-4 137-2 137 5 0 6 57 9 165 8 90-2 157 0 147 4-9 3 3 6 27 5l44-1-29-13zm2896-1013c-217-38-362-70-376-81-35-29-1-60 63-57l38 1-40 7c-37 7-36 7 11 5 60-4 98-23 83-41-7-8-6-14 1-19 5-3 10-1 10 6s3 9 6 6c4-4 2-12-3-19-6-8-8-50-4-108l6-95 6 90c3 50 5-288 5-750-1-943 0-927-89-906-5 1-6-3-2-9 4-7 12-7 26 0 10 6 19 8 19 6 0-15-41-26-59-16-11 5-28 7-38 3-16-6-15-8 7-14l25-7-25-1c-30-2-44-10-53-33l-6-17 708-1c635 0 710 1 722 16 14 17-1 33-31 34-13 0-13 1 0 10 13 8 12 10-2 10-24 0-33-4-31-11 1-4-14-2-33 4-35 11-88 67-63 67 7 0 4 6-7 14l-19 14-3 946-3 946-18 9c-22 12-146-5-338-45-68-14-127-23-130-20-4 3 2 6 12 6s16 3 12 6c-10 10-48-7-41-18 5-7-2-9-19-6-15 3-24 2-22-3 3-4 1-10-5-14-30-18-8-35 48-36 52-2 54-2 22-10-31-7-29-8 15-5 58 4 85-2 65-14-18-11-4-44 15-36 25 9 26-13 23-886l-3-847-21-27c-11-15-26-29-32-30-7-1-8 0-2 3 5 2 8 9 4 14-3 5-11 6-17 2-18-11-37-14-89-16-54-1-44-16 12-18 28-1 30-3 10-6-72-14-186 45-152 79 6 6 8 17 5 26-5 11-2 13 8 8 8-4 6-1-3 7-10 8-19 25-19 38-1 18-4 15-9-11-4-19-8 386-9 900s-5 940-9 947c-13 21-56 22-162 3zm-10137-27c-71-15-50-49 35-56 187-15 174 51 169-865-4-789-4-807-48-865-12-16-15-26-8-22 8 5-3-7-23-27-21-19-38-39-38-44 1-5 12 5 26 21 16 18 22 22 15 9-14-28-38-47-50-39-6 3-8 0-5-8 6-17-42-51-58-41-7 4-8 3-4-4 4-6-4-16-16-23-19-9-21-9-10 2 17 18 15 28-5 25-10-2-18-9-18-17 0-15-14-29-30-29-5 0-3 5 5 10 17 11 1 13-25 4-12-5-13-9-5-14 9-5 6-10-9-15-11-3-21-13-21-21 0-21 962-21 980 1 16 20 4 35-28 35-15 0-34 5-42 11-11 8-6 9 20 5 32-6 33-5 10 5-14 6-40 8-58 5-28-4-39 0-66 27-17 18-23 25-12 16 30-23 55-34 28-12-13 10-24 26-25 33-4 22-17 40-30 40-6 0-2-7 9-15 17-13 17-14 2-15-41 0-48 76-47 499 1 218 5 385 9 371s8-19 9-12c1 6 7 12 15 12s17 6 19 13c4 9 6 8 6-2 1-11 4-11 16-1 25 21 213-8 200-30-3-6 0-7 8-4s18 0 22-5c3-6 11-9 16-6 15 10 79-18 79-35 0-13 1-13 10 0 9 14 14 7 11-13-1-5 4-7 11-4 17 6 50-11 44-22-3-5 4-17 17-27l22-19-19 23c-23 26-15 28 20 6 20-14 22-19 12-33-12-14-11-14 4-2 22 17 193-140 185-171-3-10 0-15 8-12 18 7 46-42 41-71-3-18 0-25 11-25 13 0 13 3 3 15-7 8-10 15-6 15 16 0 85-125 73-132-8-5-5-8 8-8l20-1-20-16-20-15 22 5c58 13 98-244 42-279-5-3-9 0-9 5 0 6-5 11-11 11-8 0-8-4 1-15 16-19 8-40-15-40-10 0-20-6-23-14s0-11 7-7c6 4 11 3 11-2 0-6-7-12-15-16-8-3-14-2-12 2 4 13-17 10-43-5l-25-14 30 6c22 4 26 3 15-4-8-6-33-13-56-17-52-7-68-18-61-38 6-15 58-16 544-14l538 3 3 18c2 12-3 17-20 18l-23 1 21 6c29 9 9 28-26 26-14-1-35 2-47 7-14 5-23 5-23-1 0-4 6-10 13-13 6-2 3-3-9-1-37 6-94 34-94 47 0 8 3 8 8 2 13-19 62-36 55-20-3 8-9 13-13 10s-19 5-34 16c-22 17-26 18-26 5 0-19-5-20-31-5-11 5-16 15-13 21 4 7 2 8-5 4-14-9-64 21-56 33 3 5-2 12-11 15-10 4-13 2-8-7 4-6-2-3-14 7-24 21-29 32-10 20 7-5 8-3 4 5-5 7-14 10-22 7-7-3-16-1-19 4-4 6 2 10 12 11 11 0 13 3 5 6-6 2-9 10-5 16 3 7 3 9-2 5-11-10-47 11-40 22 3 6-1 7-10 4-17-7-41 9-56 37-8 15-6 17 8 12 10-3 15-3 11 1-3 4-13 8-21 10-44 6-115 107-89 127 15 12 15 12 6-1-9-12-9-18 3-29s14-11 12 0c-4 30 1 50 11 44 6-4 8-10 5-15s4-7 16-5c17 4 19 2 8-11-10-12-9-13 3-9 10 4 25-6 41-24 32-38 47-39 48-3 0 23 2 24 8 7 5-13 10 0 14 45 6 69-3 105-14 55-4-16-7 262-8 618-1 403 3 646 8 642 6-3 8 8 4 28-6 40 12 81 33 73 7-3 13 0 11 7-1 6 15 20 36 30 21 11 36 22 33 24-3 3-21-4-41-15-19-12-35-18-35-13 0 14 97 51 132 50l33-1-25-8c-23-8-23-8 7-7 17 1 29 5 26 11-3 5 2 15 12 23 48 35 9 38-435 38-386 0-431-2-446-17-23-23-9-38 35-38 53 0 102-11 95-21-3-5 2-6 11-3 28 11 63-23 80-78 17-58 23-958 6-958-4 0-6 11-4 24 3 13 1 26-5 30-5 3-9-10-8-32 1-23-4-37-11-38s-18-2-24-3c-8-1-7-7 2-18 7-10-10 4-39 32-53 50-62 61-39 50 6-4 3 0-7 9-10 8-22 13-27 11-4-3-10-1-14 4-3 6 3 8 15 6 17-3 18-1 10 14-12 24-37 34-44 18-3-9-5-9-5 1-1 6-6 12-12 12-5 0-7-6-4-12 4-7 0-5-8 5-9 10-18 18-21 18-14-1-75 33-71 40 3 3-3 6-13 5-9 0-16 4-15 11 2 8-4 10-14 6s-14-2-10 4 1 11-6 10c-34-1-48 4-41 15 4 7 3 8-4 4-6-4-39 0-74 8s-97 17-138 20c-41 4-97 9-125 11-37 3-43 2-25-4l25-9-26-1c-14-1-41-6-59-13-29-9-35-9-47 7-11 16-13 17-13 3 0-9-5-20-11-23-7-5-9 100-7 347l3 354 25 48c14 27 35 52 48 57 17 7 21 6 17-4-4-6 1-3 9 8 12 14 29 20 60 20 55 1 97 27 78 47-13 13-800 24-859 11zm1633-1217c54-72 58-106 11-106-11 0-15-4-11-12 4-7 3-8-4-4-6 4-8 14-5 23 4 10 2 14-4 10s-32 21-59 56c-44 56-54 77-31 69 5-1 5 3 1 10-11 18-14 38-5 38 4 0 13-6 20-12 12-11 13-10 7 6-11 31 20 1 80-78zm69-107c-4-5 1-12 9-15 9-3 13-10 10-15s-1-9 4-9c10 0 98-122 94-130-1-3-6-5-10-5-17 0-42-34-31-40 6-4 13 2 15 12 5 20 36 25 51 8 5-4 2-5-4-1-7 4-13 4-13-1 0-4-12-13-26-20l-25-12-33 47c-19 25-32 51-29 58 2 7-1 15-8 20-8 5-10 3-5-7 4-8-1-3-12 11-19 22-19 27-6 41 15 16 6 33-18 34-3 0-10 4-15 9s-3 6 5 2c6-4 12-2 12 3 0 6 7 11 16 11s12 5 8 12-3 8 5 4c6-4 9-12 6-17zm4678 1224c-15-3-28-20-44-61-12-31-26-61-31-67-6-6-6-2-2 9 5 14 4 17-5 12-6-4-9-15-6-25 6-19-75-154-126-211l-31-35 26 38c15 20 25 37 22 37-8 0-75-74-76-83 0-5 6-5 13-1 6 4-6-12-28-35-37-39-60-57-36-28 6 8 8 17 5 20-9 9-36-21-29-32 9-16-81-77-144-96-18-5-22-4-16 5 5 8 4 11-3 6-6-4-9-13-5-21 3-8 0-15-7-15-6 0-8-5-4-12 5-7 12-5 22 8 13 16 14 17 9 2-4-10-2-18 3-18s11 10 13 23l4 22 2-22c0-13 8-23 16-23s15-7 15-15 9-15 21-15c11 0 17 5 14 10-4 6-11 8-16 5-5-4-9-1-9 4 0 7 21 10 53 9 35-1 42-2 20-5-39-5-43-18-9-27l24-6-9-41c-5-22-7-44-4-50 11-17 24-9 28 19 2 15 5-184 6-443 1-465 4-510 36-588 6-14 3-16-11-11-14 4-16 3-5-4 7-5 11-14 8-19s0-10 8-10 12 5 9 11 5-2 18-19c12-16 32-39 44-50 11-11 23-28 27-37 3-10 12-18 19-18 9 0 9 3-2 11-18 13-8 9 45-16 63-29 224-33 294-6 30 11 59 17 64 14 6-4 7-1 2 7-6 9-4 12 7 8 8-4 21-2 29 4 11 8 10 9-4 4-11-4-16-2-11 5 3 6 16 9 29 7 13-3 22 0 22 8 0 7-5 10-11 7-6-4 3 9 19 28 17 19 38 46 48 59 10 14 15 19 12 13-3-7-1-13 5-13 7 0 10 7 6 15-8 22 15 70 26 53 11-19 10 4-2 36-10 26-50 38-50 15 0-8-6-7-17 2-15 11-16 11-5-1 18-20 16-26-24-70-25-27-40-37-48-31-7 6-20 4-36-6-14-8-17-12-7-9 27 8 20-3-9-14-38-15-91-2-127 31-22 21-27 29-15 29 11 0 15 6 11 20-3 11-11 20-19 20s-11-7-8-17c5-16 4-16-5-2-24 37-31 164-31 604v460l78 1c132 3 142 8 27 14l-110 6 138 2c144 2 187-6 217-43 8-11 11-16 5-13-5 3-15 0-22-7-10-11-6-15 19-20 22-5 27-9 17-16-12-8-6-13 13-10 7 1 88-202 88-220 0-6-5-7-12-3s-8 3-4-5c4-6 11-9 15-6 11 6 93-204 85-217-4-7-2-8 4-4 7 4 12 3 12-3 0-5 3-17 7-27 4-12 3-15-5-10-7 4-12 2-12-3 0-6 6-11 13-11 19 0 39-48 32-74-5-17-4-18 5-6 10 12 11 11 7-8-3-12-1-20 4-16 5 3 9 1 9-5 0-5 3-18 6-28 4-13 3-14-4-5-7 11-11 10-16-4-4-10-4-15 0-12 4 4 15 3 25-3 21-11 26-45 8-51-7-2-5-9 5-17 14-12 16-11 10 5-5 13-4 16 3 9 9-9 36-79 38-97 0-3 3-10 8-14 10-11 9-26-2-19-13 8-4-36 10-49 8-8 9-4 4 14-14 47 6 13 29-51 39-105 39-106 27-89-6 8-11 10-11 4s9-23 20-37c24-30 27-62 6-54-10 4-13 1-9-9 4-11 9-12 19-3 13 10 34-21 34-50 0-35 53-48 98-25 32 15 45 31 18 21-16-7-2 48 15 59 5 3 7 9 4 14s-1 11 5 15c6 3 10-4 10-16 0-29 9-19 16 16 3 16 1 24-5 21-19-12 17 95 79 234 15 36 36 86 46 112 10 25 22 44 25 42 4-2 5 5 2 15-5 18 30 49 49 43 4-1 4 6 1 15-6 14-8 14-20-3-23-30-6 28 29 101 16 33 26 52 23 42-3-11-1-15 6-12 5 4 7 15 4 26-3 10 4 40 16 66 12 27 21 52 20 56-1 5 3 5 9 2 6-4 9-13 6-20-3-8-1-15 4-17 20-7 79-166 64-172-14-5-14-8 0-22 9-8 19-27 22-42 4-15 13-36 21-47l15-20-6 25c-3 14 7-2 23-35 33-66 39-89 16-59-8 10-14 15-14 9 0-16 25-45 32-38 7 6 8 2 12-42 4-47 19-85 35-90 19-6 55-89 45-104-3-6 1-27 10-47 8-20 12-41 9-48-3-6 2-2 10 8 17 21 18 20 21-37 1-21 8-44 14-50 10-9 10-6 1 17-17 45-4 42 14-4 29-72 84-68 112 7 62 168 126 316 89 208-3-11 1-7 10 8 9 16 14 36 11 44-9 22 35 138 45 121 6-9 10-7 15 7 4 11 10 25 12 30 3 6-2 4-11-4-15-12-16-11-6 18 6 17 15 28 20 25s6 1 3 9c-10 26 67 208 83 195 11-9 12-7 7 7-5 11-3 16 2 12 5-3 11 6 12 20 1 15 9 35 19 45 15 17 15 18 0 18-10 0-17-5-17-12 0-6-2-9-5-6-9 8 6 38 16 32 5-3 6 1 4 9-3 7 1 29 10 48s14 24 11 11c-2-13 0-20 6-16 5 3 7 17 4 29-11 43 37 122 55 93 4-6 7 0 8 13 1 44 4 58 13 53 4-3 5-16 2-29-3-12-1-26 5-29 6-4 9-1 5 7-2 7 0 26 5 40 13 34-4 91-19 67-16-25-10 3 10 45 10 22 19 34 19 28 2-22 21-14 21 8 0 12-4 17-11 13-6-3-3 5 6 20 10 14 23 26 31 26 7 0 16 5 20 12s3 8-4 4-12-5-12-1c0 9 64 45 80 44 10 0 8-3-5-9-15-7-10-8 20-7 29 1 39-2 37-11-1-8 2-11 7-7 6 3 8 12 4 20-4 11 0 14 13 9 12-4 15-3 8 3-7 4-14 19-15 33l-4 25-214 3c-214 2-241-1-241-33 0-8 18-16 43-20 81-14 104-34 114-102 6-40-25-152-36-134-6 10-10 9-15-4-9-26-7-42 4-25 16 25 11 2-17-77-14-41-29-69-33-63-5 8-9 6-14-5-9-23-8-27 5-19 8 4 9-1 4-17-12-38-164-435-165-428 0 3-11 33-24 67-14 34-21 60-15 57 5-3 6 1 3 9s0 24 6 36c8 15 8 20 1 16-14-9-14 7 0 21 8 8 8 13 0 18-6 3-10 3-9-2 2-4-5-19-15-33-9-13-17-22-17-18 0 3-12 32-26 64-18 42-21 54-9 44 15-12 15-11 3 14-7 16-14 23-16 16-3-8-22 28-43 80-43 103-44 104-27 94 7-4 8-3 4 5-4 6-11 9-14 7-4-2-16 17-26 42-10 26-26 65-36 88-76 169-62 233 53 249 36 6 47 11 47 25 0 29-19 31-370 30l-336-1-13-21c-11-18-11-20 4-14 12 4 16 2 12-8-4-11-1-13 10-9 12 5 14 3 8-8-4-8-5-11 0-7 4 4 15 2 23-5 13-9 14-9 8 1-5 8 0 12 16 11 13 0 17-3 10-6-16-6-6-23 14-23 8 0 12 5 9 10-3 6-2 10 4 10 16 0 22-18 9-24-10-5-10-7 1-12 7-4 20-15 29-25s19-16 22-14c4 2 12-7 18-20 10-21 9-23-6-19-9 3-6-2 8-10s21-15 16-16c-5 0-2-8 5-17 10-11 10-14 2-9-20 11-16-29 3-45 15-12 16-11 10 11-9 32 8 6 19-29 5-18 4-22-5-16-9 5-11 4-6-4 4-6 11-9 15-6 9 5 44-76 36-83-3-3-5 0-5 7s-4 9-10 6c-5-3-10-13-10-21 0-9 5-12 12-8 8 5 9 2 4-12-5-10-13-31-18-46-5-16-14-25-20-22-6 4-8-1-4-12 3-11 1-26-5-34-8-11-9-9-4 10l7 25-22-21c-18-18-20-25-11-42 11-21 5-52-10-52-5 0-9 6-9 13 0 8-3 7-9-3-11-16-4-33 10-25 5 4 9 4 9 2 0-15-65-163-74-169-7-5-7-8-1-8s2-5-7-11c-10-5-18-15-18-20 0-6 4-8 10-4 5 3 5-7-1-24-14-40-27-27-63 63-26 65-30 146-6 106 7-11 9-10 7 7 0 12-4 20-8 18-3-3-14 4-24 15s-21 18-25 15c-3-2-16 24-28 57-18 48-20 63-10 70 12 7 4 12-14 9-4 0-4 7-1 16 4 9 2 14-4 10-11-7-47 88-38 102 3 6 1 19-5 28-9 15-10 14-5-7 5-22 4-23-5-7-7 10-9 25-6 33s1 14-3 14c-12 0-39 81-34 98 3 6 9 9 15 6 6-4 3 7-8 24-13 22-20 28-26 19-5-7-7 6-6 30 3 58 38 96 84 91 18-2 30 0 28 4-3 4 2 8 10 8s20 9 26 20 15 18 20 15 11-1 14 3c3 5-7 9-22 9-15-1-229 0-475 1l-448 2 3 275c2 151 3 274 3 274 0-1-10-4-22-6zm-3643-524 35-8-42 2c-23 1-40-1-37-4 2-4-18-12-44-18-61-16-147-55-189-87-17-13-36-23-40-22-11 3-53-25-53-36 0-5 12 1 28 15 15 13 2-2-28-33s-59-56-65-55c-5 1-9-5-7-14 1-9-5-23-15-30-15-12-16-12-8 1s7 13-8 1c-19-15-24-36-6-25 8 4 8 0 0-15-7-11-14-21-17-21s-2 6 2 13 3 8-2 4c-5-5-9-14-9-20 0-23-38-107-46-102-4 3-10-4-14-15-3-11-13-20-22-20-11 0-14-6-9-22 3-13 6-30 7-38 0-10 3-9 10 5 8 17 9 17 4-5-2-14-8-68-12-120-7-81-9-88-13-50l-6 45-8-69c-6-44-5-70 2-75 5-3 12-15 14-26s9-19 14-18c18 3 45-117 28-124-11-4-12-9-3-19 14-17 33-18 23-1-5 9-4 9 6 0 11-10 11-15 0-28-7-8-11-17-9-18s13-9 23-17l19-15-12 25c-9 21-9 22 1 6 46-67 59-89 46-78-12 9-15 9-15-3 0-8 8-15 17-15s27-12 41-27c13-14 18-23 10-18-9 5-12 3-9-5 2-7 12-14 21-16 32-4 51-32 35-52-12-15-11-16 5-3 15 12 20 12 30 1 9-9 9-11 0-6-6 3-14 2-18-3-3-6 4-8 16-6 29 6 56-14 37-27-9-6-5-7 9-3 17 5 29-1 47-19 13-14 27-26 32-26s2 5-6 11c-17 12-15 12 90-29 124-48 311-43 489 14 19 5 22 4 16-6-5-9-4-11 4-6 6 4 9 11 6 16-6 10 24 22 36 14 5-3 8 0 7 8-2 7 5 12 14 12 10-1 15 2 13 7-3 4 3 13 14 18 11 6 27 18 36 27 21 21 32 10 14-13-13-16-12-17 4-4 9 7 16 21 15 30-2 9 3 15 10 13 8-1 11 2 8 7-6 9 13 29 27 29 5 0 12 4 15 8 4 4 1 4-5 0-20-11-16 0 18 48 22 31 37 43 51 41 10-2 17-1 14 3-2 4 3 16 11 27l15 20-6-21c-4-15-2-21 9-21 10 0 13 6 9 19-4 14-1 17 13 12 12-4 14-3 6 3-7 5-14 19-16 31s-6 24-10 28c-3 4-5-3-2-14 2-12-1-25-7-28-7-4-8-2-4 4 4 7 3 12-3 12-7 0-7 8-1 26 7 18 7 23-1 18-6-3-15-1-19 5-5 9-11 9-22-3-9-8-19-12-22-8-4 3-4-2 0-12 5-13 4-17-4-12-7 4-10 2-7-6 6-16-48-94-63-91-6 2-9-3-6-10 7-20-48-68-66-57-13 8-13 10 1 10 9 0 27 9 40 20l24 19-43-21c-33-16-40-23-32-33s8-15-1-21c-7-4-9-3-6 2 3 6-3 16-15 23-11 7-17 8-14 3 7-12-15-60-32-67-8-3-11 0-7 8 4 6 1 5-7-4-17-21-83-42-113-36-14 2-22 0-19-4 3-5-9-9-25-9-19 0-35 7-43 19-9 15-17 17-42 10-34-10-77-2-56 11 8 5 5 9-9 13-12 3-19 1-15-4 3-5 1-9-4-9-16 0-63 68-52 75 5 3 10 11 10 18 0 6-6 3-13-8-9-12-19-15-28-10-8 5-5-2 5-16 11-13-4 0-32 30-76 78-164 282-149 343 3 10 1 18-4 18s-9 47-9 105v105h439c355 0 441 3 450 13 14 18 7 162-9 182-7 9-10 18-6 22 3 3 6 1 6-5 0-7 5-12 10-12 6 0 5 8-2 19s-15 18-18 16c-4-2-19 22-34 53-16 31-42 75-60 96-17 22-29 48-28 58 2 10-2 18-7 18-6 0-11-5-11-10 0-6-21 7-48 27-26 21-66 47-89 57-24 10-40 23-36 29 3 6 1 7-5 3s-23-3-39 0c-25 7-26 8-8 16 16 7 16 8-5 3-14-2-52 0-85 5-80 12-262 20-215 9zm155-80c24-6 59-25 78-43 18-17 24-23 13-14-26 21-44 26-45 13-1-5 4-11 9-11 23-3 24-5 10-15-13-9-13-10 2-6 17 6 42-15 31-26-3-4 1-7 11-7 9 0 14 5 11 10-3 6-4 10-1 10 16 0 37-63 24-72-10-8-9-9 4-5 12 4 20-3 27-25 15-42 13-47-6-23-14 18-15 18-9 2 3-10 6-26 7-35 0-11 2-12 6-4 16 39 50-90 40-155-3-21-4-17-6 15 0 23-5 42-10 42s-7-18-4-40c4-30 2-40-8-41-8-1-3-5 11-9s-100-8-257-9l-283-1 1 33c1 17 4 46 8 62l7 30 12-20c6-11 12-17 12-12 0 4-5 15-11 25-23 36 68 242 106 242 8 0 15 5 15 11 0 5-5 7-12 3s-8-3-4 5c5 7 16 9 28 5 16-5 20-3 15 9-15 41 90 76 168 56zm1085 70c-30-4-66-7-80-5-14 1-18 1-10-2 8-2-8-13-35-23-28-11-56-17-63-14s-10 1-7-5c7-11-32-33-44-25-5 3-22-6-38-21l-28-26 33 22c51 34 37 17-28-34-33-26-58-51-55-56 3-4 2-16-2-26-6-16-7-16-15 2-7 15-7 14-3-6 8-44-5-102-22-89-7 7-16 9-20 5-9-9 18-57 29-50 7 5 12-13 11-43-1-7 3-11 7-8 12 7 23-13 25-44 0-13 7-26 15-29 9-2 11 0 5 5-23 19-15 34 9 16 13-10 22-21 20-25s1-10 7-14c8-4 9-3 5 5-6 9 0 10 21 4 47-13 135-5 126 11-4 5 1 7 10 3 9-3 16-3 14 1-1 4 10 21 25 37 27 29 32 43 42 135 4 31 2 39-4 25l-9-20v22c-1 12-5 25-11 28-5 3-10 12-10 18 0 8 3 8 9-1 6-10 10-9 14 7 3 14 1 19-6 14-6-4-8 0-4 10 3 9 2 19-3 22s-11-5-13-17c-3-17-5-14-6 10-1 23 3 31 11 26s9-2 4 11c-16 43 88 92 175 82 71-9 166-63 145-84-3-3-6-1-6 6s-5 9-11 6c-6-5-4-12 8-20 10-7 21-11 25-9 5 3 8 2 9-3 4-59 10-79 23-89 12-8 17-32 20-90 3-66 2-70-3-24-7 47-8 50-11 20-7-76-7-90 1-90 12 0 11-27-1-35-6-4-7 1-4 12 5 15 3 15-10-2-8-11-21-26-28-34-10-12-8-13 11-8l24 6-28-29c-15-16-31-28-34-27s-18-7-33-17-33-14-39-10c-7 4-9 3-6-3 4-6 0-14-9-17-21-8-26-8-20 3 3 5-6 9-21 9-24 0-25-2-10-13 21-15-190-89-227-80-11 2-15 2-8-1s-24-23-68-44c-50-25-100-59-135-93-30-29-58-51-61-48s-4 1-3-4c7-22-36-105-51-99-12 4-13 3-2-7 15-16 15-53 0-96-8-23-9-36-2-41 5-4 16-27 23-52s26-63 42-84c15-21 26-43 23-48s0-7 6-6c7 2 14-5 15-15 2-11 7-22 11-25 4-4 4 1 1 11-4 9-4 17-1 17 11 0 53-37 48-43-3-3 1-5 8-4 18 1 108-26 108-33 0-14 218 9 269 28 30 12 59 18 64 15 6-4 7-1 2 7-6 10-4 12 9 7 10-4 15-3 11 3s3 9 16 7c12-1 23 4 25 11 1 7 0 8-3 2-2-5-9-10-15-10-22 0 14 29 40 32 17 2 27 9 27 20 0 9 13 31 30 47l29 31 13-31c15-37 17-50 3-29-5 8-10 10-10 4 0-7 11-19 25-28 23-15 26-54 3-40-6 4-6 9 2 14 9 5 9 9 1 14-6 4-11 4-12-1 0-4-2-17-3-29-2-21 25-27 41-9 5 4 2 5-6 0-10-5-12-4-7 3 7 11 68-26 87-51 3-5 9-8 13-8 27 4 40-1 22-8-10-4 26-5 80-3 85 3 108 8 164 34 61 30 72 33 103 29 9-1 8-4-2-10-56-36-11-41 344-41h346l22 21c12 11 18 20 12 19-22-5-27 1-15 15 11 14 10 14-16 5-36-14-98-4-126 22-13 11-17 17-10 13 6-3 12-3 13 2 6 42 5 73-1 63-5-9-9-9-14-1-4 6-4 15-1 21 3 5 0 7-8 4-9-3-13-14-11-27l4-22-9 20c-17 35-13 812 3 865 8 25 15 40 15 34 1-7 7-14 14-17 14-5 15 41 2 63-3 6-1 9 6 8 6-2 14 3 17 11s0 11-7 7c-20-13-12 11 18 47 15 20 31 34 35 30 3-3 6 0 6 7 0 10 3 11 11 3s18-8 34-1c34 15 77-15 69-48-4-13-1-31 6-39 6-8 10-18 7-22s2-14 10-22c13-12 14-11 8 10-5 17 0 13 19-14 14-21 23-43 20-49-5-7-2-8 5-4 16 10 73-13 64-27-4-6-1-7 8-1 8 4 27 9 42 10 16 2 48 15 70 31 23 15 45 28 49 28 3 0 10 4 15 9s3 6-4 2-13-2-13 4c0 13 41 30 55 22 6-3 4 1-2 9-15 16-17 33-3 24 6-3 7 1 4 9-3 9-10 14-14 11-4-2-10 18-13 45s-14 64-23 82c-16 30-16 32-1 19 11-8 17-9 17-3s8 9 18 6c12-4 14-3 4 4-8 5-24 8-37 7-15-2-33 7-52 28-15 18-18 24-6 14 21-18 38-11 25 9-9 14-66 28-57 15 3-6-13-4-36 4-57 21-119 19-190-5-34-12-64-19-66-16-3 3-15 0-27-6-11-7-23-13-26-14-23-5-36-18-37-35-2-17 1-18 12-9 8 7 12 17 8 23s-1 7 7 2c9-6 11-4 5 6-5 8-4 11 0 6 5-4 20 0 34 10 14 9-1-10-35-43-34-32-69-74-78-91-23-46-26-42-25 35 0 41 3 60 8 48 11-28 20-7 13 29-4 26-6 27-13 10-6-16-8-14-8 11-1 37-14 44-79 44-60 0-446-78-450-90-2-6-8-8-12-5-5 3-12 0-16-6-4-7-3-9 3-6 6 4 14 0 17-9 4-10 16-15 33-14 60 4 110-1 83-9l-25-7 22-6c12-3 26-1 31 4 6 6 12 5 17-3 5-7 4-10-2-6-17 10-22-17-7-31 12-11 14-10 15 5 0 16 1 16 9-2 13-30 12-1012-1-1059-11-39-49-86-69-86-6 0-8 4-5 10 4 6-6 7-24 4-20-4-37-1-48 7-16 13-17 12-4-3 7-10 25-19 40-19l26-2-23-4c-13-3-31 2-41 11s-21 13-26 9c-4-5 0 4 10 19 9 15 22 25 28 21 5-3 7-2 4 4-3 5 5 31 18 58 26 50 32 99 15 110-6 4-8 11-5 16 4 5-6 9-22 8-25 0-26-1-8-9 11-5 14-9 8-9-7-1-13-9-14-18 0-15-2-15-9 2l-9 20-1-20-1-20-10 20c-8 18-9 18-7-5 2-35-11-72-24-64-7 4-8 2-4-4 12-19 23-14 36 18 7 17 15 29 17 26 24-23-58-96-107-95-19 1-28 3-18 6 14 3 12 8-8 29-29 29-36 30-27 7 5-15 4-16-8-5-15 14-16 45-21 604-2 141 0 254 3 252 17-10 17 29 0 47l-18 20 3-28c3-16-4-5-15 25-22 57-49 100-93 148-20 21-24 31-14 31 8 0 12-5 9-10-4-6-1-7 7-2s11 4 7-3c-5-6 1-8 15-4l22 5-25 10c-13 6-33 10-44 10-11-1-22 2-25 6-7 11-137 71-153 71-8 0-7 4 3 11 11 8 6 9-20 4-19-3-30-3-24 2 16 11-229 13-296 2zm318-831-2-263-6 255c-3 140-7 248-9 240-6-29-2-491 5-501 3-6-2-17-12-25-11-9-12-12-5-8 9 5 6-5-7-24-28-38-39-46-47-32-3 5 1 10 9 10 19 0 21 16 4 26-6 4-8 3-5-3 4-6 0-14-9-17-8-3-14-13-12-22s-8-23-22-31c-23-14-24-14-6 1 23 19 20 20-25 5-19-6-41-13-49-15-13-5-13-6 0-14 10-7-2-10-40-10-37 0-50 3-41 9 19 12-31 27-51 15-11-6-11-5 0 8 10 13 10 17-3 22-9 3-13 10-10 16s-1 7-10 4c-12-5-13-9-4-20 6-8 7-14 2-14-15 0-44 36-36 43 3 4 1 7-5 7-17 0-37 71-23 80 9 5 7 10-4 20-29 24-5 187 33 217 9 8 11 11 4 8-23-12 2 26 39 60 18 17 28 23 21 13-8-10-9-18-3-22 12-8 30 24 24 41-2 6 53 39 130 77 74 37 142 75 152 86s20 20 22 20c1 0 2-118 1-262zm4872 831c-30-5-68-6-85-4-22 4-25 3-10-3 16-8 15-10-14-15-18-4-38-4-44 0-5 3-7 1-4-4 4-6-7-16-25-22-17-6-52-23-77-38s-51-26-58-25c-6 1-15-3-19-9-5-8-3-9 7-4 8 4-16-21-52-56s-74-76-83-91c-10-16-23-25-32-21-8 3-14 0-14-7 0-6 5-8 10-5 13 8 13-1 0-26-9-15-15-17-30-9-13 7-21 7-26-2-4-6-3-8 2-5 29 18 34-11 10-64-13-31-30-81-37-112-14-59-29-78-23-29l4 27-8-25c-5-14-12-38-16-55l-6-30 15 19c14 18 15 10 15-90 0-62 7-137 15-173 9-36 13-71 10-78-2-8-1-12 4-9s12-1 15-10c9-22 8-26-6-18-7 4-8 3-4-5 4-6 12-9 17-6 5 4 9 2 9-2 0-5 15-35 34-66 19-32 33-66 31-77-2-10 4-25 13-32 15-11 16-11 4 4-27 34 6 26 42-11 23-23 33-41 27-44-7-3-7-5 1-3 16 3 103-63 103-78 0-6 9-11 20-11 35 0 88-27 73-37-9-7-7-8 7-4 11 3 49-3 85-14 36-10 56-19 45-20l-20-1 19-11c15-8 21-8 24 0 2 8 40 12 119 12 176 0 289 36 398 127 33 27 64 50 68 50 5 1 12 5 15 9 4 4 0 4-8-1s-4 4 9 18c20 22 27 25 40 14 14-10 14-10 4 3-19 24 23 86 46 68 14-11 14-11 3 4-11 14-10 23 8 58 17 33 19 45 9 56-19 23-35 16-53-25-10-21-32-54-49-72-17-19-31-37-30-41 2-3-5-12-14-20-14-11-16-11-11 3 4 11 0 15-13 14-19-1-51-25-34-25 5 0-4-14-21-32-16-18-20-26-9-18s25 22 32 30c9 10 12 11 13 3 0-18-76-66-91-57-8 5-9 3-4-6 6-9 2-10-15-5-15 5-20 4-16-4 4-6 3-11-3-11-5 0-17-3-27-7-11-4-15-3-10 5 4 7-4 9-25 7-40-5-50-15-18-16 19-1 16-3-11-10-41-10-127-2-137 14-4 7 0 8 11 4 10-4 15-3 11 3-3 6-18 10-33 10-21 0-24-2-12-10 22-14 4-12-35 4-22 9-35 22-35 33 0 13-3 14-8 6-8-12-92 38-92 54 0 3 15-6 34-21 19-14 37-26 41-26 13 0-50 51-69 56-33 8-68 68-48 80 13 9 13 12 2 19-9 6-11 4-5-5 5-9 4-11-3-6-7 4-12 15-12 24 0 13-2 14-9 3s-9-11-13 0c-3 8 2 20 11 27 14 11 13 12-6 7-34-9-69 111-55 190 5 31 5 58 1 61-5 3-10-14-10-38l-1-43-9 40c-11 57-11 107 1 100 6-4 10 12 10 39v46l73 2 72 1-65 7c-36 4 126 7 361 8 454 2 449 2 449 52 0 21 5 26 23 26 17-1 23 5 25 29l4 30-26-24c-19-18-26-21-30-10-2 8-11 43-21 79-22 85-64 163-120 223-25 26-41 47-35 47 5 0 10 5 10 11s-8 8-19 4c-11-3-22-1-26 4-4 7 1 8 12 4 19-7 18-5-11 17-13 10-17 10-12 3 13-22-48 8-74 37-3 3-9 6-15 7-5 1-36 11-68 23-97 35-205 45-307 29zm140-70c11 0 10-2-3-7-15-6-12-9 13-19 27-10 30-10 20 3-30 35 14 11 58-32 26-25 41-43 35-39-7 3-13 3-14-2 0-4-2-17-3-28-2-17 3-21 26-19 24 2 26-1 18-16-11-20-4-31 15-24 16 6 43-90 49-171 3-47 2-52-4-20-4 22-8 33-10 25-1-8-2-19-1-23s-4-17-10-29c-9-16-8-19 2-13 8 5 10 4 5-3-4-7-26-13-49-13l-42-2 35-7c19-4-68-7-195-7-150 1-201 3-145 7l85 6-100 3c-55 2-103 3-107 2-5 0-8 7-9 16-1 12-4 10-10-7-14-41 0 57 18 120 21 78 60 160 75 159 10 0 10-2 1-6-7-2-13-10-13-16 1-17 50 45 50 62 0 11-3 11-17 0-10-8-2 3 17 24 42 45 115 89 95 57-8-13 25-13 45 0 12 8 10 10-10 11l-25 1 25 8c14 5 34 7 45 4 11-2 27-4 35-5zm-3278-332c0-82-4-159-7-170-5-18-4-19 4-7 8 11 11 4 11-30 0-25-4-40-8-34-4 7-8-69-9-167 0-98 3-179 8-179 4 0 5-22 2-49-3-29-1-51 5-55 12-7 14 717 3 794-4 29-7-8-9-103zM6703 2823c97-2 257-2 355 0 97 1 17 2-178 2s-275-1-177-2zm-12-309c-35-7-81-25-102-39s-42-25-46-25c-17-1-66-60-68-82-4-38-5-39-15-33-11 7-12-4-10-88 1-32 8-79 15-105 8-25 11-50 8-55-3-6-1-7 5-3 7 4 13 2 13-3 5-40 21-62 60-82 22-11 39-23 39-28 0-4 6-8 13-8 13-1 107-19 169-32 23-5 35-4 31 2-3 5 3 6 16 2 12-3 21-2 21 4 0 10 68 37 83 33 5-1 6 2 2 8-3 5 0 10 8 10s23 8 34 18c10 9 12 13 3 7-13-9-13-8-1 8 7 9 19 17 26 17s16 16 19 36c4 19 15 43 24 52 30 30 13 242-20 242-4 0-8 7-8 15s-4 15-10 15c-5 0-10 7-10 16s5 12 13 8c8-5 8-3-2 9-7 9-17 15-21 12-14-9-40 6-33 19 3 6 3 8-2 4-9-8-65 22-65 35 0 4-3 6-8 3-4-2-32 1-62 8-45 11-67 10-119 0zm69-45c-12-8-9-9 13-5 17 4 27 2 27-5s3-10 6-6c11 11 75-45 70-60-3-8-2-12 3-9 38 24 65-231 28-272-9-10-14-22-10-26s-3-16-17-28c-14-11-19-16-11-12 9 5 12 3 7-4-4-7-13-12-20-12-8 0-20-9-27-21-17-25-96-38-125-20-11 6-13 11-6 11 6 0 12 5 12 10 0 7-7 7-20 0-16-8-20-8-18 2 2 7-5 12-14 12-10-1-18 3-18 9 0 5-7 15-17 22-14 10-14 17-4 46 9 25 9 31 0 22s-16-8-28 4c-20 20-23 179-4 191 17 11 44 78 35 87-4 4 3 5 16 2 12-3 20-1 17 3-3 5-1 11 5 15s7 11 4 17c-4 6-2 8 4 4 6-3 14 0 19 8 8 14 32 23 68 25 17 1 18-1 5-10zm1853 54c3-5-4-24-15-43-13-24-18-28-14-12 2 13 0 20-6 16-5-3-7-15-5-25 6-23-22-101-34-93-5 3-6-1-3-9 5-15-81-208-98-218-5-3-9-10-9-15 1-18-11-44-20-44-6 0-7-4-4-10 9-15-22-68-48-80l-22-11 24 21c13 11 21 23 18 26-8 8-57-45-57-61 0-8 7-15 16-15 8 0 13-3 10-8-6-10 147-2 158 9 5 5 4 14-2 22-7 8-8 17-4 21 4 5-4 6-18 4-32-4-38 23-14 60 10 15 17 30 16 35-1 4 4 7 12 7s17 6 19 13c4 10 6 10 6 0 1-7 6-13 12-13s9 7 5 15c-3 8-2 15 2 16 4 0 21 2 37 4 105 12 182-33 149-86-4-7-3-9 3-6 11 7 28-22 18-31-3-3-5 1-6 9 0 8-4 5-8-6-5-12-4-23 3-27 7-5 4-8-6-8-22 0-23-8-1-32 12-13 13-18 3-18-7 0-10-3-7-6 4-4 13-1 22 6 15 12 47 10 104-6 17-5 22-4 17 4s4 12 29 12c35 0 64 29 37 38-7 2-12 10-12 18 0 9-5 12-10 9-10-6-45 22-45 36 0 4-3 11-7 15-5 4-8 18-8 31s-6 26-14 29-12 13-8 26c3 14 1 19-6 14-8-4-10-2-6 7 3 9-4 22-18 31-12 9-19 16-15 16s-2 15-13 33c-11 17-20 47-20 65 0 22-8 41-25 58-21 21-23 29-14 46 8 14 8 18 0 14-6-4-20 11-32 38-12 24-33 49-46 55s-22 8-20 4zm-3-211c-6-2-10-11-10-20 0-14 2-15 10-2 11 17 12 17 39-38 31-61 24-72-44-72-31 0-54 4-51 9s-1 12-9 15c-17 6 5 77 26 84 5 2 6 9 3 14-5 7-2 8 5 4 8-5 14 0 18 14 4 16 8 18 14 8 5-7 4-14-1-16zm-2982 181c-12-13-27-23-34-23-17 0-25-14-30-56-2-20-9-45-15-55-27-52 91-169 171-169 8 0 29-9 46-19 18-11 42-21 55-23 13-1 23-7 22-13-1-5 8-20 19-32 12-13 17-23 11-23s-9-8-6-19c3-10-1-22-8-26-8-6-10-4-4 6 5 8 4 11-1 6s-10-13-10-18c-1-5-2-13-3-18-11-79-211 5-247 103-11 32-33 47-35 24 0-7 0-32 1-56s-4-50-10-58c-13-15 4-74 21-74 5 0 6-8 2-17-5-15-4-15 9 1 10 13 22 17 37 13 13-3 19-1 14 6-4 7 0 8 13 3 20-9 206-25 213-19 2 2-2 3-10 3-8 1 1 7 20 15 18 8 38 12 44 8 5-3 7-1 4 4-4 6 3 13 16 17 38 9 57 62 45 126-6 30-11 72-12 93-1 33-4 37-22 33-13-4-28 1-39 14-10 11-22 17-28 13s-8 0-5 8c5 12-3 15-36 15-64 1-118 13-110 26 4 7 3 8-4 4s-17-4-23 0c-8 5-8 9 1 14 8 5 3 10-14 14-15 4-24 11-21 16 3 6 1 10-4 10-6 0-9 10-7 23 3 12 5 25 5 30 1 12 25 3 34-13 4-9 5-3 2 13-3 17-1 27 6 27s18 8 25 18c11 14 13 14 14 2 0-13 1-13 10 0 8 13 11 13 19 1 5-8 16-11 25-8 9 4 16 2 16-3 0-6 8-10 19-10 10 0 25-8 32-17 12-15 12-16-1-8-8 4-5-3 8-17 23-25 30-44 12-33-6 3-7-1-4-9 3-9 10-16 16-16 5 0 17-8 26-17l17-17 3 22c2 12 8 20 13 17s6 2 2 11c-5 13-3 15 7 9 9-5 11-4 6 4-4 6-12 9-17 6-5-4-9 6-8 22 0 25 1 26 9 8s9-17 9 8c1 15-3 27-8 27s-11 12-13 27c-3 31 4 29-190 36l-98 3-22-23zm2100 20c-213-3-284-18-198-40 22-6 27-39 8-45-9-3-8-9 4-21 12-13 18-14 22-4 2 6 5-74 5-180l-1-192-29-30c-34-36-37-51-8-51 11 0 18-3 15-8-4-7 131-5 170 3 12 3 25 13 28 22 4 10 4 15 1 11-11-11-67 13-61 27 2 7-1 18-7 24-9 9-7 11 8 6 18-6 18-5 3 5-20 12-26 84-8 95 5 3 6 13 3 21-3 9 0 20 8 25 10 6 10 9 2 9-7 0-13 5-13 10 0 6 24 10 54 10 48 0 54-2 51-19-2-14 2-17 20-15 19 2 25-4 30-27 7-30 22-46 33-34 4 4 9 48 12 98 4 65 9 91 17 90 7-2 10 4 6 13-3 8-8 12-11 9s-13 2-22 10c-35 32-79-9-47-45 10-13 10-13-2-3s-19 8-37-13c-21-21-92-34-79-14 2 4-5 13-16 20-21 16-28 123-9 135 6 4 8 11 5 16-4 5 0 16 9 24 17 17 136 22 136 5 0-5 7-7 16-3 14 5 15 3 5-15-8-15-8-23 1-28 6-4 8-3 5 3-14 23 23 21 50-3 15-13 24-24 19-24s-2-8 5-17c9-11 10-14 2-9-9 5-11 2-7-8 3-9 10-13 15-10s9 1 9-4c0-6 9-8 19-5 13 3 18 10 14 21-4 10-2 13 5 8 7-4 12-2 12 3 0 6-4 11-9 11s-8 14-6 30c3 18 0 28-5 25-6-4-10 7-10 24 0 33-9 62-19 59-3-2-104-4-223-5zm-2764-245c-3-4-547-8-1209-8-799 0-1206-3-1210-10-3-6-3-19 0-30l6-20h1210c804 0 1208-3 1204-10-3-5 3-10 15-10 14 0 19 4 14 12-5 7-2 9 9 5 9-3 18 0 21 9 3 8 12 14 20 14 22 0-35 55-57 55-10 1-21-3-23-7zm4521 2c3-6 0-10-8-10-27 0-39-47-13-54 46-11 2488-7 2480 5-2 4 2 10 8 13 10 3 8 8-4 16-9 6-24 17-32 25-11 12-21 13-41 5-36-14-2334-14-2370 0-17 7-24 7-20 0z"/></g></svg><svg xmlns="http://www.w3.org/2000/svg" width="1448" height="1086" version="1.0" viewBox="0 0 1448 1086"><g fill="#e6d1bc" transform="matrix(.1 0 0 -.1 0 1086)"><path d="M5770 8903c-681-54-1171-503-1170-1072 0-119 5-161 31-257l11-40 101-24c56-14 107-26 112-27 6-2 10 49 10 139v143l32 88c315 888 1749 822 2288-106 61-105 51-105 115 3 407 688 1369 951 1959 535 251-176 400-477 362-728-15-96-21-90 64-62 39 12 89 26 112 30l43 7 14 49c151 507-194 1068-769 1253-743 238-1553-146-1815-862l-26-73-33 88c-216 575-829 965-1441 916zm45-589c-515-77-850-372-844-744 2-119 6-128 73-165 284-157 480-450 512-767 4-38 10-68 13-68s29 9 57 20c268 101 784 157 1538 166l389 4 29 48c16 26 43 70 60 97 87 140 146 278 163 379 9 55 18 103 20 106 2 4 9 57 15 119 17 176 30 186 184 142 248-71 430-96 586-80 589 61 744 14 613-184-95-144-195-381-110-262 70 99 231 234 365 307 81 44 34 344-79 496-523 708-1775 425-2130-480l-28-73-12 33c-208 587-839 992-1414 906zm2071-696c-7-18-16-71-20-118-3-47-17-134-31-195-14-60-25-117-25-126 0-21-110-232-170-327-62-96-61-99 58-106 463-28 535-35 722-62 151-23 325-60 408-88 87-30 86-31 107 100 9 54 25 140 36 189 11 50 19 104 17 122s1 34 8 37c6 2 43 70 82 150s96 181 127 225c58 82 67 114 38 130-21 10-638-4-736-18-34-5-64-5-67-2-3 4-45 13-95 20-100 14-307 61-374 85-61 22-70 20-85-16zm-3553-167c-511-130-511-789 0-797 147-3 202-96 242-414 69-539 281-753 763-767 206-6 226-1 134 35-298 115-457 353-547 816-123 638-503 978-781 697l-36-36 15 30c69 137 300 173 476 74 210-119 315-308 401-727 114-550 286-755 731-874l84-23 1384-2c1533-4 1467-6 1664 61 358 122 521 338 617 817 71 353 135 504 275 645 190 191 479 219 590 56 34-50 32-60-5-18-260 296-653-60-784-709-92-455-216-647-514-793l-97-47 159-3c495-8 733 216 805 759 29 217 55 303 117 385l23 31 93 5c445 25 541 559 135 752-488 232-1138-141-1263-724-26-124-22-140 49-212 177-177 136-454-83-557l-55-26-1640-3c-1179-2-1658 0-1706 8-277 47-365 375-157 584l69 69-11 79c-74 541-649 956-1147 829zm2367-851c-1153-53-1540-224-1289-570 93-128-29-121 1859-118l1635 3 50 23c249 115 211 412-67 521-269 107-1376 178-2188 141zM4920 5378c-1-84-5-214-10-288-14-220 8-217 174 21 66 94 148 203 183 241 79 89 81 84-36 91-100 6-228 40-275 72-35 25-36 20-36-137zm4574 120c-72-33-189-58-280-58-73 0-76-5-33-46 40-37 122-145 233-306 162-234 162-233 158 143-4 325 1 305-78 267zm2207-640c-256-52-331-88-187-88 158 0 146 73 146-919 0-997 9-935-133-959-33-6-43-12-45-30l-3-22h689c380 0 697 3 706 6 25 10 18 33-11 39-177 36-163-55-163 1065 0 1016 4 950-64 950-65-1-477-86-486-101-14-22-4-26 71-31 82-6 105-23 119-84 18-75 12-1643-6-1703-34-116-244-129-294-19l-20 43v935c0 715-3 939-12 948-20 20-104 12-307-30zm-10011-13c-18-22-3-35 43-35 207-1 202 25 193-875-9-953-12-965-313-1070-7-2-13-11-13-19 0-17 933-23 959-6 25 15 4 37-43 43-173 24-186 64-186 584v403h81c317 0 577-189 794-579l58-104-6-76c-9-145-82-231-192-231-22 0-53-26-43-36 15-14 1066-13 1078 1 10 12 9 16-1 19-8 2-48 14-89 26-218 64-363 192-599 529-340 486-632 652-994 567-38-9-73-16-78-16-6 0-9 129-7 363l3 362 20 35c24 42 94 80 145 80 41 0 77 21 66 38-12 20-860 17-876-3zm1335-1c-22-23-8-30 71-37 73-6 110-22 138-60l21-28 3-481 3-481 53-66c29-36 100-136 159-221 110-161 172-240 188-240 5 0 9 284 9 713 0 759 1 769 49 818 26 26 45 33 146 55 25 6 40 15 40 24 0 24-856 28-880 4zm5048-96c-6-7-14-24-18-38-40-141-232-381-377-474-86-55-81-76 17-76h74l3-532 3-533 24-59c112-277 531-273 671 7 23 46 27 63 19 74-18 21-27 16-60-37-54-88-141-120-222-81-92 44-97 82-97 677v484h143c195 0 211-11 278-185 17-44 64-163 104-265 115-289 212-542 271-705 96-262 92-264 272 187 78 194 159 395 180 446l39 94 63-149c34-81 99-233 143-338 43-104 100-239 126-300 77-185 89-176 211 145 45 118 129 339 187 490 57 151 116 307 130 345 58 159 103 215 193 238 55 14 73 32 49 48-22 14-416 8-436-6-24-18-10-30 51-44 141-31 136-66-76-630l-93-248-63 146c-295 682-302 715-158 736 50 8 64 19 47 39-12 15-655 17-678 3-27-17-13-36 31-42 92-14 108-34 190-234l47-113-97-242c-53-132-102-251-108-264-13-24-34 27-212 515-101 276-98 321 21 339 47 7 65 28 36 43-10 6-140 10-302 10h-436l-153 1-2 267c-3 263-7 296-35 261zm-3608-518c-825-117-776-1359 55-1397 268-12 706 266 625 397-14 23-41 8-65-37-261-495-911-177-834 408l7 49 446 2 446 3-3 60c-14 324-329 564-677 515zm170-79c101-45 185-218 185-378v-63h-571l6 38c52 307 214 479 380 403zm1073 79c-301-36-497-284-344-437 131-131 315-7 254 171-75 221 244 300 351 88 124-245 51-364-295-482-313-107-415-197-431-379-32-354 432-491 717-213l59 57 11-38c78-263 607-165 568 105-5 40-39 29-55-19-21-61-54-93-98-93-93 0-95 9-95 439-1 686-139 859-642 801zm300-916-3-201-37-45c-120-146-342-123-387 39-54 193 30 344 249 450 58 28 121 62 140 76l35 25 3-72c2-39 2-161 0-272zm1278 907c-83-28-157-90-213-180l-22-36-1 102c0 146 0 146-314 83-214-43-216-44-216-66 0-10 13-14 45-14 139 0 135 15 135-587 0-610 0-610-114-632-56-10-79-27-56-41 9-6 153-9 355-7l340 2v20c0 16-9 21-49 27-123 17-124 23-125 518-1 442 2 473 57 573 65 120 202 134 202 19 0-163 210-207 286-59 87 167-110 344-310 278zm3510-11c-775-209-631-1380 169-1380 256 0 615 232 593 384-6 42-34 29-68-31-260-461-801-240-827 339l-6 128 454 2 454 3-3 55c-18 355-394 601-766 500zm279-75c89-52 165-221 165-368v-57h-570v28c0 271 233 499 405 397zM6692 2510c-335-69-304-538 38-567 323-27 440 409 145 543-60 27-125 36-183 24zm132-50c110-53 148-261 73-395-76-136-261-108-311 47-72 224 69 431 238 348zm-1169 36c-164-73-116-234 90-306 125-44 157-78 135-144-38-117-253-72-289 60-17 64-31 37-31-60 0-94 4-108 28-84 8 8 30 7 87-7 332-78 423 223 99 329-118 39-153 81-120 144 48 93 208 57 246-55 22-64 42-41 38 44l-3 78-40 2c-22 1-78 5-125 8-61 4-94 1-115-9zm2073 6c-134-1-218-6-218-12s8-10 19-10c39 0 41-19 39-256l-3-229-27-13c-51-24-30-32 82-32s133 8 83 32l-28 13-3 113-3 112h58c69 0 97-16 113-65 20-62 30-38 30 76 0 107-14 145-30 81-11-48-36-62-105-62h-65v220h88c109 0 148-17 177-77 39-84 52-48 29 79-7 36 13 33-236 30zm856-69c-19-43-46-103-59-133-87-206-142-307-174-318-57-20-35-32 58-32 84 0 126 13 84 26-54 17-57 32-22 115l21 49h215l12-27c7-16 22-49 32-76l19-48-25-9c-52-20-25-30 80-30 108 0 139 14 79 36-23 8-44 47-144 264-135 293-129 286-176 183zm61-161c45-98 48-94-52-90l-80 3 41 92c22 51 43 89 47 85 3-4 23-44 44-90zm-6095-27c-29-35-13-35 1235-35 1286 0 1271 0 1232 39-19 19-2451 15-2467-4zm6917 8c-4-3-7-15-7-25v-18h1234c1249 0 1265 0 1236 35-13 16-2448 24-2463 8z"/></g></svg><svg xmlns="http://www.w3.org/2000/svg" width="1448" height="1086" version="1.0" viewBox="0 0 1448 1086"><g fill="#cfb297" transform="matrix(.1 0 0 -.1 0 1086)"><path d="M5625 8885c-669-109-1119-656-1010-1230 22-118 18-114 125-141 51-13 100-26 109-29 14-4 16 10 16 138 0 1084 1817 1154 2343 90 33-66 30-67 80 21 620 1090 2531 915 2329-213l-8-43 23 6c13 4 63 17 111 30 101 25 102 26 123 129 303 1425-2129 1725-2597 320-24-73-27-73-58 17-215 616-913 1014-1586 905zm2266-1262c-5-10-14-64-20-119-28-266-88-436-230-654-63-97-69-93 174-107 477-26 735-62 999-139 103-31 98-34 115 79 7 45 21 120 32 167 11 46 21 108 23 138 3 29 11 61 19 70s44 78 80 152 91 171 121 215c99 141 82 145-509 113-115-6-221-11-235-11-73 2-403 72-485 103-40 15-73 12-84-7zm-3536-168c-525-109-541-799-18-797 140 1 207-118 243-433 45-394 228-654 516-730 60-16 445-35 433-21-3 4-44 25-90 47-296 143-422 337-513 791-133 661-524 1007-790 697l-35-42 12 34c73 202 414 194 622-16 140-141 198-279 276-655 112-543 328-772 806-855 104-18 2693-22 2818-5 488 70 735 323 840 862 86 447 212 669 438 773 189 88 421 30 462-115 6-21 4-20-16 9-45 64-120 96-225 96h-90l-79-39c-211-104-318-297-405-731-95-473-257-716-549-821-87-31-62-37 132-31 469 14 700 240 762 746 27 223 60 330 124 403l31 36h83c424 1 535 533 152 734-511 267-1235-180-1291-797l-6-72 35-22c221-136 174-516-75-600l-62-21H7245c-1800 0-1703-3-1795 55-193 122-188 442 9 578 62 42-13 325-134 506-216 326-622 508-970 436zm4807-185c-19-18-77-149-69-157 2-2 12 9 22 24s37 48 60 73l42 45-18 17c-16 15-18 15-37-2zm-3824-95c3-5 26-38 50-72 87-125 155-306 168-448 8-89 7-87 57-66 237 102 737 158 1494 168l442 6 57 93c33 55 53 98 48 105-4 8-3 10 4 5 12-7 48 52 38 62-3 3-6 1-6-4 0-6-7-19-15-30l-15-19 7 20c6 18 5 19-12 5s-18-13-12 2c4 13 2 15-10 11-10-4-14-2-10 4 7 11-30 46-42 39-4-3-19 2-32 12-13 9-34 15-45 14-12-2-25 2-29 7-3 6-23 11-44 11s-54 6-72 14c-36 14-228 3-239-14-6-8-88 2-136 18-19 6-37 6-47 0-11-5-24-5-37 2-11 6-20 7-20 2 0-23-119-34-188-17-15 4-21 1-20-7 4-16-119-15-170 1-20 6-30 6-26 0 7-12-98 1-140 17-10 4-16 1-16-9s-7-13-19-10c-10 2-44 0-76-6-40-8-61-8-65-1s-43 8-116 2c-60-5-149-7-199-6-69 2-94-1-107-13-18-16-122 5-130 27-2 5-38 15-80 21-50 7-84 18-97 31-12 10-25 17-30 14s-11 1-15 9c-3 8-16 14-30 13s-22-7-18-13zm2261-589c-2-3-82-6-178-8-95-2-175-6-178-10-2-5 15-8 39-8s68-3 98-6c42-4 52-3 40 6s-7 10 20 4c19-4 56-8 82-9 62-2 75-15 15-15-45 0-84-14-99-35-4-5-10-6-14-2-4 3-1 13 6 22 11 13 5 15-50 15h-62l6-25c5-20 2-26-19-31-14-3-25-11-25-18 0-6-5-3-11 7-12 20-45 23-56 4-10-16-93-3-93 15 0 5 7 8 15 4 21-8 45 3 45 20 0 20-27 29-45 14-10-8-15-9-15-2 0 8-48 11-147 11-88 0-142-4-133-9 29-18-8-37-86-43-76-6-108-2-99 13 12 20-25 32-50 16-13-9-35-16-48-16-27 0-77-21-77-33 0-5-6-5-12-1-7 5-29 9-48 11-99 6-133 12-140 22-12 21-165 21-206 1-19-10-54-22-77-26-35-6-39-8-22-16 14-6 9-7-17-3s-38 2-38-6c0-16-100-6-140 14-34 18-110 2-103-20 3-8-5-13-19-14-12-1-42-2-65-4-23-1-40 2-37 6 11 18-13 7-66-29-163-114-161-339 3-440l58-36 130-6c238-12 3189-4 3236 9 260 72 265 390 8 506-96 43-310 97-267 67 40-27-64-23-117 4l-26 14 35 1c51 2-49 17-110 17-40 0-42-1-15-8 17-4-14-5-68-3-80 3-98 1-103-11-5-13-9-12-26 4-21 19-62 34-52 19 3-5-19-9-48-8-39 0-48 3-33 9 28 12-132 11-164-1-27-11-43-3-21 11 10 6 6 10-16 13-17 2-5 5 31 7l60 3-85 8c-95 8-294 11-301 5zM4920 5347c0-100-3-233-7-294l-6-113h26c29 0 21-9 183 219 60 85 133 180 162 212 65 71 66 69-20 69-94 0-195 22-275 59l-63 30v-182zm4559 143c-73-32-164-50-256-50-72 0-73-2-32-50 53-62 143-182 238-317 133-191 151-188 140 17-4 69-8 194-8 278-1 83-4 152-8 151-5-1-37-14-74-29zm2431-597c-76-12-390-75-418-84-52-17-32-33 47-40 137-10 129 46 130-914 1-981 8-937-161-970-149-29-25-35 674-33 682 3 816 9 671 33-65 11-105 29-127 58l-21 28-3 951c-3 1071 5 984-86 973-69-7-443-82-457-90-28-18-7-35 45-35 66 0 107-14 126-43 21-31 28-1676 7-1746-34-117-246-129-302-16l-20 40-3 940c-2 724-5 941-15 947-12 8-43 8-87 1zm-10216-47c-27-21-15-27 72-37 82-9 114-24 141-66l18-27-1-741c-1-773-2-802-45-902-37-87-133-167-241-202-21-7-38-17-38-22 0-13 957-12 965 2 10 15 3 19-65 35-82 19-117 46-149 113l-26 56-3 407-3 407 34 6c279 53 620-174 841-560l68-118-4-86c-7-131-49-198-142-222-179-46-154-49 443-49 574 0 630 5 473 42-226 53-379 187-638 558-335 482-699 662-1059 524-18-7-22 574-5 686 17 103 57 144 160 161 72 13 93 24 70 39-26 17-842 13-866-4zm1340 0c-26-20-19-24 65-36 172-24 165-1 169-589l3-474 38-46c21-25 91-122 156-216 64-93 134-190 154-215l36-44 5 719 5 720 25 50c29 58 63 80 146 96 67 13 86 25 64 39-26 17-842 13-866-4zm5021-141c-14-32-25-59-25-61 0-62-225-327-344-404-88-57-86-74 11-78l72-3 3-527 3-527 23-58c37-90 78-137 156-177l68-35 97 1c159 0 280 69 344 196 48 95 18 127-38 40-77-121-239-120-291 0-18 40-19 81-22 566l-3 522h141c239 0 197 69 606-1015 147-389 148-390 244-145 141 362 294 730 300 723s123-282 331-780c71-169 90-159 186 94 447 1176 415 1109 545 1131 124 21 48 37-182 37-229 0-306-16-183-37 169-28 160-89-115-792l-39-99-52 124c-316 743-316 744-172 765 45 7 65 20 55 36s-681 10-687-7c-7-17-2-20 43-29 84-15 112-51 195-254l38-93-108-271-109-271-12 34c-6 19-64 173-129 344-175 465-178 515-26 515 24 0 31 4 31 20v20h-900l-2 272c-3 300-9 323-53 223zm-3685-498c-871-258-510-1579 369-1350 166 43 435 289 404 370-10 25-37 9-62-36-261-473-809-253-838 337l-6 122h450c352 0 452 3 456 13 8 21-12 140-34 202-101 281-430 433-739 342zm265-56c105-47 183-203 188-371l2-75-287-3-288-2v28c0 260 218 499 385 423zm1005 63c-276-60-426-323-251-441 145-98 283 34 220 211-40 115 20 186 159 186 155-1 236-106 237-306v-110l-27-35c-36-49-117-89-304-152-327-111-426-205-428-405-4-337 441-450 714-181l58 57 12-39c61-185 343-225 484-69 64 71 105 181 72 193-17 7-22 2-53-65-33-71-102-96-151-55-32 26-35 65-33 399 2 476-13 567-118 681-114 124-367 180-591 131zm366-1089c-43-175-331-210-411-50-94 188-8 362 242 489 71 36 138 74 148 84l20 19 3-261c1-144 0-270-2-281zm753 1066c-240-49-239-49-239-66 0-11 13-15 53-15 141-1 138 11 135-605-4-615 2-589-131-619-107-24-46-31 303-34 342-2 447 8 323 33-67 13-108 32-127 58l-21 28-3 417c-4 457-1 490 51 587 74 138 202 145 215 13 18-200 292-167 292 36 0 262-383 279-531 22l-29-51v102c0 153 0 153-291 94zm4048 18c-790-194-645-1378 168-1372 261 1 634 251 581 388-10 28-31 15-60-38-260-465-808-248-833 330l-6 133 449 2 449 3 3 42c24 332-376 605-751 512zm227-51c109-33 199-201 208-388l3-65-287-3-288-2v37c1 250 193 472 364 421zM5667 2496c-171-61-129-236 73-301 125-40 163-80 144-148-35-120-253-81-293 53-19 65-31 47-31-50 0-90 3-97 29-81 9 6 33 3 64-6 326-96 451 212 129 315-110 36-142 61-142 113 0 121 200 120 253-1 30-68 37-63 37 30 0 77-5 91-26 70-6-6-27-4-58 5-60 18-129 19-179 1zm982-2c-115-35-195-154-187-279 24-368 578-355 578 15 0 197-191 326-391 264zm199-43c113-80 120-337 12-435-172-155-381 124-267 357 51 103 169 140 255 78zm1698-114c-127-286-156-340-194-357-47-22-30-30 65-30 86 0 105 10 53 29-36 12-37 26-8 94 28 69 23 66 113 72 119 8 131 3 166-80l30-69-17-13c-10-7-21-13-26-13-4 0-8-4-8-10s42-10 105-10c107 0 127 8 78 32-16 7-35 27-43 44s-62 133-120 257c-124 270-101 264-194 54zm93-42c22-46 42-94 46-105l6-20h-90c-50 0-91 3-91 8 0 7 83 201 87 202 1 0 20-38 42-85zm-1119 197c0-4 10-12 23-17 26-12 35-113 28-348l-4-139-23-10c-45-21-24-28 75-28 103 0 133 10 82 28l-29 10-5 64c-3 35-5 87-5 116v52h65c80 0 99-10 114-60 19-62 29-37 29 71 0 94-11 126-26 77-14-48-33-58-104-58h-68l-7 36c-3 20-3 70 1 111l7 75 102-4c115-3 131-11 167-81 26-52 32-42 23 42l-7 71h-219c-120 0-219-3-219-8zm-4968-259 3-18h2460l3 18 3 17H2549l3-17zm6910 0 3-18h2460l3 18 3 17H9459l3-17z"/></g></svg><svg xmlns="http://www.w3.org/2000/svg" width="1448" height="1086" version="1.0" viewBox="0 0 1448 1086"><g fill="#a26943" transform="matrix(.1 0 0 -.1 0 1086)"><path d="M5680 8890c-724-101-1204-684-1054-1279l19-75 65-12c36-7 85-19 108-27l44-15-7 91c-79 1110 1724 1235 2343 164l45-79 27 50c408 746 1437 1022 2037 547 229-180 368-505 315-733-9-39-8-43 6-37 10 4 55 16 102 27 47 12 90 22 97 24 52 13 65 397 19 548-347 1140-2129 1061-2573-114-24-64-33-80-38-65-216 657-882 1079-1555 985zm2212-1282c-6-18-13-70-17-116-3-45-17-128-31-183-13-55-24-111-24-125 0-24-118-252-170-329-69-101-66-105 70-105 332-1 919-78 1112-146 80-28 78-30 99 106 6 41 20 113 31 160 10 47 20 106 20 133 1 26 5 47 10 47 4 0 42 69 84 153 42 83 99 184 126 223 33 48 49 79 46 95l-3 24-155-1c-326-1-583-16-660-37-8-2-12-2-7 0 21 12-1 22-75 33-137 21-259 47-338 74-97 33-106 33-118-6zm-3482-149c-572-76-626-799-59-799h77l28-32c62-74 103-203 129-412 66-509 279-724 730-733l200-4-85 43c-299 152-413 332-510 805-74 360-134 498-274 635-169 164-421 181-516 35-30-47-39-33-12 20 78 151 329 178 517 55s295-325 370-703c111-551 283-758 730-877l100-26 1335-4c1651-4 1643-5 1909 172 228 152 318 320 405 756 73 365 176 560 363 681 214 140 484 88 538-101 6-23 5-22-13 5-239 375-679 15-812-665-88-445-223-652-520-794l-74-36 84-2c549-14 785 199 855 770 24 200 56 300 119 370l36 40 93 4c465 20 511 606 60 763-516 180-1142-247-1208-823l-7-62 61-59c218-211 128-540-164-601-34-7-583-9-1685-8l-1635 3-60 24c-234 92-285 394-97 578l64 64-6 72c-48 496-572 912-1066 846zm519-1951c0-7-3-116-6-243-3-126-6-250-7-275-2-92 27-70 165 127 68 97 152 207 187 244l62 67-87 6c-98 8-214 36-274 66-28 15-39 17-40 8zm4571-13c-57-30-151-52-257-61l-82-6 64-74c34-41 111-144 170-229 163-235 182-242 172-68-4 58-7 186-7 285 0 98-3 178-7 177-5 0-28-11-53-24zm2425-602c-91-13-442-86-452-95-21-17-6-25 51-25 152 0 141 72 141-927v-851l-18-32c-22-41-53-61-114-77-130-33-71-36 649-34 717 3 759 6 637 39-134 37-124-49-127 1056-2 857-4 942-19 947-9 4-71-3-137-14-370-64-468-98-311-110 138-11 127 72 126-929-2-777-3-849-19-881-50-101-249-102-299-2l-18 37-3 940c-2 1003-1 970-46 964-6-1-24-4-41-6zm-10209-42c-54-11-40-28 31-35 102-11 147-34 167-88 24-62 19-1489-5-1578-39-140-137-244-263-280-95-26-37-30 436-28 490 3 568 10 429 37-178 35-191 78-191 613v391l103-6c331-20 575-201 787-585l63-113-7-62c-15-153-59-209-185-241-126-31-65-36 484-36 552 0 613 5 472 36-201 46-385 195-577 467-197 278-216 303-300 388-218 220-512 315-766 246-34-10-65-17-69-17-3 0-5 163-3 363l3 362 27 46c30 52 72 75 157 87 72 9 76 27 9 35-68 9-763 7-802-2zm1340 0c-51-11-41-28 21-34 194-21 192-16 193-615v-454l38-43c21-24 76-99 122-167s115-166 154-218l71-95 5 725c6 799 3 767 69 822 18 16 54 31 88 38 78 16 83 18 83 28 0 21-755 33-844 13zm4986-184c-81-173-252-378-364-437-36-19-48-31-48-47v-23h140v-488c0-503 4-562 41-650 110-257 534-240 658 26 26 56 15 104-13 58-67-114-184-159-266-103-83 55-90 108-90 710v447h153c180 0 200-8 242-91 36-71 300-745 412-1054 62-169 66-177 102-173l26 3 179 448c163 407 181 446 192 425 7-13 78-180 159-373 81-192 162-384 179-425 27-63 36-75 57-78 41-5 25-42 356 833 162 428 188 474 283 491 48 9 74 24 63 35-17 17-438 7-438-11 0-9 15-17 44-22 157-27 150-81-88-702-79-204-76-200-95-156-8 19-62 148-121 285-191 448-197 463-175 519 11 30 42 48 95 55 154 22 35 36-295 36-351 0-411-8-286-40 71-18 99-53 161-200 67-160 68-127-15-335-39-96-85-211-102-255s-34-83-38-88c-7-8-272 691-285 751-16 75 19 121 99 132 168 22 37 35-409 40l-450 5-3 268c-3 298-4 303-60 184zm-3622-452c-785-156-703-1337 95-1372 279-12 654 214 623 376-6 31-27 19-57-33-269-478-841-230-841 365v99l448 2 447 3 3 35c31 324-346 599-718 525zm246-76c86-53 164-234 164-381v-58h-580v31c0 287 236 519 416 408zm996 77c-244-47-403-236-325-386 97-186 352-48 274 148-47 119 13 195 154 196 157 0 249-118 249-319 0-154-40-189-334-290-332-114-431-206-434-403-5-331 437-443 710-180l62 59 12-35c86-261 532-198 562 80 5 49-26 42-46-10-33-85-104-119-159-76-43 34-47 71-47 462 0 440-8 488-97 605-95 125-356 191-581 149zm358-806c0-297-1-302-83-377-175-162-395-38-374 210 12 145 85 232 269 322 62 30 127 66 143 80 17 13 33 24 38 25 4 0 7-117 7-260zm1273 805c-98-30-172-94-224-195l-24-45-5 120-5 120-53 3c-51 3-391-57-440-78-36-15-16-30 39-30 131 0 129 11 129-589 0-610 0-608-122-633-141-29-74-38 292-38 369 0 440 10 289 39-123 25-129 51-129 537 0 370 6 432 50 531 71 161 230 176 230 21 0-136 207-163 269-34 82 169-97 334-296 271zm3554 0c-815-153-707-1375 122-1375 259 0 687 288 583 392-15 15-29 3-52-42-253-496-912-182-845 402l7 58 446 2 447 3 3 30c36 309-351 597-711 530zm208-64c100-45 176-194 191-372l7-79h-593l6 43c44 308 215 488 389 408zM5698 2501c-75-16-128-75-128-144 0-79 46-118 195-167 123-41 160-111 96-182l-29-33h-69c-97 0-153 44-184 145-4 16-8-9-8-69-1-82 1-92 14-81 12 10 28 9 80-4 162-41 289 11 297 121 7 98-28 137-167 183-156 52-201 119-124 184 78 66 191 30 233-74 22-56 26-51 26 36v75l-20-6c-11-4-35-2-53 4-48 15-118 20-159 12zm970-4c-104-30-176-108-198-214-57-272 287-448 485-249 206 207-2 543-287 463zm182-46c118-95 121-358 4-448-135-102-294 24-294 233 0 197 163 318 290 215zm670 39c0-5 9-10 20-10 35 0 40-31 40-258 0-232-1-237-50-255-8-3 32-5 90-5s98 2 90 5c-45 16-50 32-50 145v108h73c81 0 95-8 115-65 9-25 10-11 11 75 0 97-1 103-13 74-21-48-51-64-124-64h-63l3 118 3 117 80 3c108 4 156-15 191-74 32-55 33-54 25 26l-6 65-217 3c-143 1-218-1-218-8zm1015-187c-127-287-141-312-178-328l-32-14h85c76-1 82 1 60 12-32 16-32 61 0 130l21 48 110-3 111-3 29-68c35-83 36-95 7-107-16-6 9-9 82-9 96 0 102 1 74 13-26 12-41 36-106 177-194 420-154 397-263 152zm117-26 46-102-95-3c-117-3-111-11-67 84 20 43 40 89 45 102 14 36 21 27 71-81zm-6097-38c-13-20 4-20 1231-19 1244 0 1241 0 1229 19-9 15-2451 15-2460 0zm6910 0c-12-18-19-18 1228-20 1210-1 1246-1 1232 20-9 15-2451 15-2460 0z"/></g></svg><svg xmlns="http://www.w3.org/2000/svg" width="1448" height="1086" version="1.0" viewBox="0 0 1448 1086"><g fill="#4a291a" transform="matrix(.1 0 0 -.1 0 1086)"><path d="M5775 8893c-763-60-1282-624-1151-1250 20-94 24-102 55-109 58-12 149-34 163-39 14-6 15 7 11 97-30 594 634 1020 1352 868 440-94 754-329 1020-764l17-29 20 34c363 611 1034 913 1665 748 429-112 761-527 703-880-14-92-15-90 23-75 17 8 65 22 105 31 86 21 84 19 108 164 98 595-406 1142-1106 1200-668 55-1306-352-1496-954-20-61-25-61-43 5-153 535-847 1013-1391 958-8-1-33-3-55-5zM4345 7444c-511-113-520-775-11-779l89-1 38-42c66-75 98-181 134-447 64-476 304-696 757-695l153 1-67 34c-311 156-429 342-527 831-69 342-137 495-277 623-177 162-416 168-511 13-26-42-32-22-10 31 58 136 282 183 462 96 235-115 349-317 444-786 113-558 372-807 886-853 149-13 2526-13 2667 0 536 51 786 298 903 891 121 616 464 939 799 750 68-38 150-161 107-161-6 0-11 7-11 15 0 57-128 128-226 127-298-4-471-237-579-778-91-453-216-647-515-796l-75-37 157-1c466 0 705 229 764 735 25 220 74 367 143 429 15 14 41 18 108 20 393 11 521 483 189 698-495 320-1261-129-1329-778l-6-51 38-29c217-162 178-507-68-606l-56-23-1655-3-1655-2-67 20c-89 27-154 80-198 161l-35 64v100c0 124 20 170 113 265l64 65-12 79c-80 538-621 932-1125 820zm7415-2584c-296-60-358-80-247-80 70 0 116-18 137-53l20-32V3005l-19-42c-22-47-44-62-116-78-114-26-34-30 648-33 689-2 843 5 652 31-65 9-100 31-121 74l-19 38-5 945-5 945-38 3c-48 4-460-76-484-94-16-12-12-13 32-14 67-1 114-19 139-53l21-28V2995l-18-37c-50-100-244-104-302-7l-20 34-5 950-5 950-50 2c-27 1-115-11-195-27zm-10063-17c-16-15-3-20 64-26 83-7 127-29 152-77l17-35-3-760c-3-827-1-806-60-905-44-76-130-145-212-170-22-7-44-16-49-21-10-9 913-13 937-3 30 11 18 20-44 33-166 34-179 76-179 599v405l108-6c331-16 569-194 791-595 104-188 46-366-133-407-112-26-47-30 474-32 534-3 593 1 475 31-211 53-383 193-582 474-275 390-366 484-556 573-152 71-353 91-504 52l-73-19v350c0 474 5 487 203 521 20 3 37 10 37 15 0 11-853 14-863 3zm1333-3c-19-12-5-17 73-23 65-6 110-28 141-70l21-28 3-480 3-480 48-62c26-34 99-136 161-226s127-180 144-199l31-35 5 724 5 724 19 38c23 46 76 83 131 92 71 11 85 15 85 25 0 13-849 13-870 0zm5021-164c-71-161-227-353-358-439-83-54-81-65 10-69l72-3 5-535 5-535 24-59c107-267 515-262 653 8 24 48 28 104 5 75-2-2-18-25-36-51-68-102-194-123-268-46-60 62-63 93-63 650v498h145c179 0 212-14 258-106 36-71 457-1170 457-1192 0-38 74-38 85 1 12 37 324 817 339 845l14 27 21-48c11-27 34-78 50-115 32-73 118-277 234-557 109-261 104-262 227 63 43 114 105 277 137 362 33 85 86 225 118 310 89 238 114 295 143 334 29 38 111 86 149 86 30 0 30 20 1 21-48 1-257 2-335 0-91-1-110-16-35-27 158-24 153-78-62-649-110-292-95-280-158-135-311 719-320 762-165 785 97 15 46 28-108 28-481 0-606-8-487-29 88-15 112-46 198-252l44-104-109-270c-60-148-111-271-113-273s-27 58-55 133c-29 75-91 241-138 367-123 325-121 381 8 400 39 6 67 24 40 25-5 0-170 2-368 4s-399 4-447 5l-88 1v270c0 297-2 303-49 196zm-3581-457c-848-100-765-1378 90-1373 255 1 580 208 580 369 0 36-29 15-71-49-299-466-900-153-833 435l7 59h900l-7 63c-34 327-317 538-666 496zm166-60c110-53 194-222 194-391v-68h-592l7 43c49 312 223 498 391 416zm1077 60c-275-33-454-217-373-384 87-180 352-53 271 130-52 119 13 214 148 215 150 1 243-105 258-290 14-183-32-225-364-339-304-104-403-201-403-396 0-326 440-430 709-167 35 34 65 61 66 60 1-2 7-22 14-46 73-256 503-191 548 83 8 51-20 47-36-4-33-111-158-139-197-46-11 27-14 106-14 387-1 387-7 468-43 550-81 183-311 280-584 247zm282-1126c-105-178-366-171-420 11-58 195 27 353 249 460 61 30 129 67 151 83l40 30 3-270 2-270-25-44zm1306 1122c-94-26-182-100-233-196l-23-44-3 115c-4 148-1 147-199 110-313-59-388-84-259-86s126 12 126-602c0-613 1-607-130-630-113-19-26-27 300-27 339 0 403 7 284 31-121 24-119 16-119 529v430l23 66c65 188 252 252 252 87 1-150 187-191 264-58 92 157-86 329-283 275zm3501-14c-793-195-614-1397 202-1358 244 11 546 215 546 368 0 32-19 30-36-3-256-506-850-277-857 332l-2 115 453 3 454 2-7 53c-51 370-376 580-753 488zm275-56c87-52 160-205 170-362l6-83h-595l7 57c38 305 236 491 412 388z"/></g></svg></g></svg>